%TF.GenerationSoftware,KiCad,Pcbnew,(5.1.9)-1*%
%TF.CreationDate,2021-03-01T22:37:49-08:00*%
%TF.ProjectId,SD1326_I2C_breakout,53443133-3236-45f4-9932-435f62726561,0.1b*%
%TF.SameCoordinates,Original*%
%TF.FileFunction,Paste,Bot*%
%TF.FilePolarity,Positive*%
%FSLAX46Y46*%
G04 Gerber Fmt 4.6, Leading zero omitted, Abs format (unit mm)*
G04 Created by KiCad (PCBNEW (5.1.9)-1) date 2021-03-01 22:37:49*
%MOMM*%
%LPD*%
G01*
G04 APERTURE LIST*
%ADD10R,0.650000X1.060000*%
%ADD11R,1.090000X0.610000*%
%ADD12R,0.300000X1.250000*%
%ADD13R,2.000000X3.000000*%
%ADD14R,1.454899X0.532600*%
%ADD15R,1.500000X4.200000*%
%ADD16R,1.220000X0.910000*%
G04 APERTURE END LIST*
%TO.C,C13*%
G36*
G01*
X76472500Y-37815000D02*
X76947500Y-37815000D01*
G75*
G02*
X77185000Y-38052500I0J-237500D01*
G01*
X77185000Y-38652500D01*
G75*
G02*
X76947500Y-38890000I-237500J0D01*
G01*
X76472500Y-38890000D01*
G75*
G02*
X76235000Y-38652500I0J237500D01*
G01*
X76235000Y-38052500D01*
G75*
G02*
X76472500Y-37815000I237500J0D01*
G01*
G37*
G36*
G01*
X76472500Y-36090000D02*
X76947500Y-36090000D01*
G75*
G02*
X77185000Y-36327500I0J-237500D01*
G01*
X77185000Y-36927500D01*
G75*
G02*
X76947500Y-37165000I-237500J0D01*
G01*
X76472500Y-37165000D01*
G75*
G02*
X76235000Y-36927500I0J237500D01*
G01*
X76235000Y-36327500D01*
G75*
G02*
X76472500Y-36090000I237500J0D01*
G01*
G37*
%TD*%
D10*
%TO.C,U4*%
X76160000Y-28990000D03*
X74260000Y-28990000D03*
X74260000Y-31190000D03*
X75210000Y-31190000D03*
X76160000Y-31190000D03*
%TD*%
D11*
%TO.C,U3*%
X82710000Y-28990000D03*
X84850000Y-29905000D03*
X82710000Y-30820000D03*
%TD*%
D12*
%TO.C,U2*%
X103510000Y-29290000D03*
X104010000Y-29290000D03*
X102510000Y-29290000D03*
X103010000Y-29290000D03*
X101510000Y-29290000D03*
X102010000Y-29290000D03*
X100510000Y-29290000D03*
X101010000Y-29290000D03*
X99510000Y-29290000D03*
X100010000Y-29290000D03*
X98510000Y-29290000D03*
X99010000Y-29290000D03*
X97510000Y-29290000D03*
X98010000Y-29290000D03*
X96510000Y-29290000D03*
X97010000Y-29290000D03*
X95510000Y-29290000D03*
X96010000Y-29290000D03*
X94510000Y-29290000D03*
X95010000Y-29290000D03*
X93510000Y-29290000D03*
X94010000Y-29290000D03*
X92510000Y-29290000D03*
X93010000Y-29290000D03*
X91510000Y-29290000D03*
X92010000Y-29290000D03*
D13*
X89970000Y-31615000D03*
X105550000Y-31615000D03*
%TD*%
D14*
%TO.C,U1*%
X116210000Y-29420000D03*
X116210000Y-30690000D03*
X116210000Y-31960000D03*
X116210000Y-33230000D03*
X121652696Y-33230000D03*
X121652696Y-31960000D03*
X121652696Y-30690000D03*
X121652696Y-29420000D03*
%TD*%
%TO.C,R3*%
G36*
G01*
X100672500Y-37927500D02*
X101147500Y-37927500D01*
G75*
G02*
X101385000Y-38165000I0J-237500D01*
G01*
X101385000Y-38665000D01*
G75*
G02*
X101147500Y-38902500I-237500J0D01*
G01*
X100672500Y-38902500D01*
G75*
G02*
X100435000Y-38665000I0J237500D01*
G01*
X100435000Y-38165000D01*
G75*
G02*
X100672500Y-37927500I237500J0D01*
G01*
G37*
G36*
G01*
X100672500Y-36102500D02*
X101147500Y-36102500D01*
G75*
G02*
X101385000Y-36340000I0J-237500D01*
G01*
X101385000Y-36840000D01*
G75*
G02*
X101147500Y-37077500I-237500J0D01*
G01*
X100672500Y-37077500D01*
G75*
G02*
X100435000Y-36840000I0J237500D01*
G01*
X100435000Y-36340000D01*
G75*
G02*
X100672500Y-36102500I237500J0D01*
G01*
G37*
%TD*%
%TO.C,R2*%
G36*
G01*
X88572500Y-37915000D02*
X89047500Y-37915000D01*
G75*
G02*
X89285000Y-38152500I0J-237500D01*
G01*
X89285000Y-38652500D01*
G75*
G02*
X89047500Y-38890000I-237500J0D01*
G01*
X88572500Y-38890000D01*
G75*
G02*
X88335000Y-38652500I0J237500D01*
G01*
X88335000Y-38152500D01*
G75*
G02*
X88572500Y-37915000I237500J0D01*
G01*
G37*
G36*
G01*
X88572500Y-36090000D02*
X89047500Y-36090000D01*
G75*
G02*
X89285000Y-36327500I0J-237500D01*
G01*
X89285000Y-36827500D01*
G75*
G02*
X89047500Y-37065000I-237500J0D01*
G01*
X88572500Y-37065000D01*
G75*
G02*
X88335000Y-36827500I0J237500D01*
G01*
X88335000Y-36327500D01*
G75*
G02*
X88572500Y-36090000I237500J0D01*
G01*
G37*
%TD*%
%TO.C,R1*%
G36*
G01*
X90172500Y-37915000D02*
X90647500Y-37915000D01*
G75*
G02*
X90885000Y-38152500I0J-237500D01*
G01*
X90885000Y-38652500D01*
G75*
G02*
X90647500Y-38890000I-237500J0D01*
G01*
X90172500Y-38890000D01*
G75*
G02*
X89935000Y-38652500I0J237500D01*
G01*
X89935000Y-38152500D01*
G75*
G02*
X90172500Y-37915000I237500J0D01*
G01*
G37*
G36*
G01*
X90172500Y-36090000D02*
X90647500Y-36090000D01*
G75*
G02*
X90885000Y-36327500I0J-237500D01*
G01*
X90885000Y-36827500D01*
G75*
G02*
X90647500Y-37065000I-237500J0D01*
G01*
X90172500Y-37065000D01*
G75*
G02*
X89935000Y-36827500I0J237500D01*
G01*
X89935000Y-36327500D01*
G75*
G02*
X90172500Y-36090000I237500J0D01*
G01*
G37*
%TD*%
D15*
%TO.C,L1*%
X113710000Y-37190000D03*
X116410000Y-37190000D03*
%TD*%
D16*
%TO.C,D1*%
X113610000Y-29090000D03*
X113610000Y-32360000D03*
%TD*%
%TO.C,C12*%
G36*
G01*
X73972500Y-37815000D02*
X74447500Y-37815000D01*
G75*
G02*
X74685000Y-38052500I0J-237500D01*
G01*
X74685000Y-38652500D01*
G75*
G02*
X74447500Y-38890000I-237500J0D01*
G01*
X73972500Y-38890000D01*
G75*
G02*
X73735000Y-38652500I0J237500D01*
G01*
X73735000Y-38052500D01*
G75*
G02*
X73972500Y-37815000I237500J0D01*
G01*
G37*
G36*
G01*
X73972500Y-36090000D02*
X74447500Y-36090000D01*
G75*
G02*
X74685000Y-36327500I0J-237500D01*
G01*
X74685000Y-36927500D01*
G75*
G02*
X74447500Y-37165000I-237500J0D01*
G01*
X73972500Y-37165000D01*
G75*
G02*
X73735000Y-36927500I0J237500D01*
G01*
X73735000Y-36327500D01*
G75*
G02*
X73972500Y-36090000I237500J0D01*
G01*
G37*
%TD*%
%TO.C,C11*%
G36*
G01*
X96172500Y-37815000D02*
X96647500Y-37815000D01*
G75*
G02*
X96885000Y-38052500I0J-237500D01*
G01*
X96885000Y-38652500D01*
G75*
G02*
X96647500Y-38890000I-237500J0D01*
G01*
X96172500Y-38890000D01*
G75*
G02*
X95935000Y-38652500I0J237500D01*
G01*
X95935000Y-38052500D01*
G75*
G02*
X96172500Y-37815000I237500J0D01*
G01*
G37*
G36*
G01*
X96172500Y-36090000D02*
X96647500Y-36090000D01*
G75*
G02*
X96885000Y-36327500I0J-237500D01*
G01*
X96885000Y-36927500D01*
G75*
G02*
X96647500Y-37165000I-237500J0D01*
G01*
X96172500Y-37165000D01*
G75*
G02*
X95935000Y-36927500I0J237500D01*
G01*
X95935000Y-36327500D01*
G75*
G02*
X96172500Y-36090000I237500J0D01*
G01*
G37*
%TD*%
%TO.C,C10*%
G36*
G01*
X97972500Y-37815000D02*
X98447500Y-37815000D01*
G75*
G02*
X98685000Y-38052500I0J-237500D01*
G01*
X98685000Y-38652500D01*
G75*
G02*
X98447500Y-38890000I-237500J0D01*
G01*
X97972500Y-38890000D01*
G75*
G02*
X97735000Y-38652500I0J237500D01*
G01*
X97735000Y-38052500D01*
G75*
G02*
X97972500Y-37815000I237500J0D01*
G01*
G37*
G36*
G01*
X97972500Y-36090000D02*
X98447500Y-36090000D01*
G75*
G02*
X98685000Y-36327500I0J-237500D01*
G01*
X98685000Y-36927500D01*
G75*
G02*
X98447500Y-37165000I-237500J0D01*
G01*
X97972500Y-37165000D01*
G75*
G02*
X97735000Y-36927500I0J237500D01*
G01*
X97735000Y-36327500D01*
G75*
G02*
X97972500Y-36090000I237500J0D01*
G01*
G37*
%TD*%
%TO.C,C9*%
G36*
G01*
X94472500Y-37815000D02*
X94947500Y-37815000D01*
G75*
G02*
X95185000Y-38052500I0J-237500D01*
G01*
X95185000Y-38652500D01*
G75*
G02*
X94947500Y-38890000I-237500J0D01*
G01*
X94472500Y-38890000D01*
G75*
G02*
X94235000Y-38652500I0J237500D01*
G01*
X94235000Y-38052500D01*
G75*
G02*
X94472500Y-37815000I237500J0D01*
G01*
G37*
G36*
G01*
X94472500Y-36090000D02*
X94947500Y-36090000D01*
G75*
G02*
X95185000Y-36327500I0J-237500D01*
G01*
X95185000Y-36927500D01*
G75*
G02*
X94947500Y-37165000I-237500J0D01*
G01*
X94472500Y-37165000D01*
G75*
G02*
X94235000Y-36927500I0J237500D01*
G01*
X94235000Y-36327500D01*
G75*
G02*
X94472500Y-36090000I237500J0D01*
G01*
G37*
%TD*%
%TO.C,Ce*%
G36*
G01*
X102372500Y-37815000D02*
X102847500Y-37815000D01*
G75*
G02*
X103085000Y-38052500I0J-237500D01*
G01*
X103085000Y-38652500D01*
G75*
G02*
X102847500Y-38890000I-237500J0D01*
G01*
X102372500Y-38890000D01*
G75*
G02*
X102135000Y-38652500I0J237500D01*
G01*
X102135000Y-38052500D01*
G75*
G02*
X102372500Y-37815000I237500J0D01*
G01*
G37*
G36*
G01*
X102372500Y-36090000D02*
X102847500Y-36090000D01*
G75*
G02*
X103085000Y-36327500I0J-237500D01*
G01*
X103085000Y-36927500D01*
G75*
G02*
X102847500Y-37165000I-237500J0D01*
G01*
X102372500Y-37165000D01*
G75*
G02*
X102135000Y-36927500I0J237500D01*
G01*
X102135000Y-36327500D01*
G75*
G02*
X102372500Y-36090000I237500J0D01*
G01*
G37*
%TD*%
%TO.C,C7*%
G36*
G01*
X104072500Y-37815000D02*
X104547500Y-37815000D01*
G75*
G02*
X104785000Y-38052500I0J-237500D01*
G01*
X104785000Y-38652500D01*
G75*
G02*
X104547500Y-38890000I-237500J0D01*
G01*
X104072500Y-38890000D01*
G75*
G02*
X103835000Y-38652500I0J237500D01*
G01*
X103835000Y-38052500D01*
G75*
G02*
X104072500Y-37815000I237500J0D01*
G01*
G37*
G36*
G01*
X104072500Y-35952500D02*
X104547500Y-35952500D01*
G75*
G02*
X104785000Y-36190000I0J-237500D01*
G01*
X104785000Y-36790000D01*
G75*
G02*
X104547500Y-37027500I-237500J0D01*
G01*
X104072500Y-37027500D01*
G75*
G02*
X103835000Y-36790000I0J237500D01*
G01*
X103835000Y-36190000D01*
G75*
G02*
X104072500Y-35952500I237500J0D01*
G01*
G37*
%TD*%
%TO.C,C6*%
G36*
G01*
X118372500Y-37852500D02*
X118847500Y-37852500D01*
G75*
G02*
X119085000Y-38090000I0J-237500D01*
G01*
X119085000Y-38690000D01*
G75*
G02*
X118847500Y-38927500I-237500J0D01*
G01*
X118372500Y-38927500D01*
G75*
G02*
X118135000Y-38690000I0J237500D01*
G01*
X118135000Y-38090000D01*
G75*
G02*
X118372500Y-37852500I237500J0D01*
G01*
G37*
G36*
G01*
X118372500Y-36127500D02*
X118847500Y-36127500D01*
G75*
G02*
X119085000Y-36365000I0J-237500D01*
G01*
X119085000Y-36965000D01*
G75*
G02*
X118847500Y-37202500I-237500J0D01*
G01*
X118372500Y-37202500D01*
G75*
G02*
X118135000Y-36965000I0J237500D01*
G01*
X118135000Y-36365000D01*
G75*
G02*
X118372500Y-36127500I237500J0D01*
G01*
G37*
%TD*%
%TO.C,C5*%
G36*
G01*
X111472500Y-37815000D02*
X111947500Y-37815000D01*
G75*
G02*
X112185000Y-38052500I0J-237500D01*
G01*
X112185000Y-38652500D01*
G75*
G02*
X111947500Y-38890000I-237500J0D01*
G01*
X111472500Y-38890000D01*
G75*
G02*
X111235000Y-38652500I0J237500D01*
G01*
X111235000Y-38052500D01*
G75*
G02*
X111472500Y-37815000I237500J0D01*
G01*
G37*
G36*
G01*
X111472500Y-36090000D02*
X111947500Y-36090000D01*
G75*
G02*
X112185000Y-36327500I0J-237500D01*
G01*
X112185000Y-36927500D01*
G75*
G02*
X111947500Y-37165000I-237500J0D01*
G01*
X111472500Y-37165000D01*
G75*
G02*
X111235000Y-36927500I0J237500D01*
G01*
X111235000Y-36327500D01*
G75*
G02*
X111472500Y-36090000I237500J0D01*
G01*
G37*
%TD*%
%TO.C,C4*%
G36*
G01*
X109702500Y-37815000D02*
X110177500Y-37815000D01*
G75*
G02*
X110415000Y-38052500I0J-237500D01*
G01*
X110415000Y-38652500D01*
G75*
G02*
X110177500Y-38890000I-237500J0D01*
G01*
X109702500Y-38890000D01*
G75*
G02*
X109465000Y-38652500I0J237500D01*
G01*
X109465000Y-38052500D01*
G75*
G02*
X109702500Y-37815000I237500J0D01*
G01*
G37*
G36*
G01*
X109702500Y-36090000D02*
X110177500Y-36090000D01*
G75*
G02*
X110415000Y-36327500I0J-237500D01*
G01*
X110415000Y-36927500D01*
G75*
G02*
X110177500Y-37165000I-237500J0D01*
G01*
X109702500Y-37165000D01*
G75*
G02*
X109465000Y-36927500I0J237500D01*
G01*
X109465000Y-36327500D01*
G75*
G02*
X109702500Y-36090000I237500J0D01*
G01*
G37*
%TD*%
%TO.C,C3*%
G36*
G01*
X107872500Y-37815000D02*
X108347500Y-37815000D01*
G75*
G02*
X108585000Y-38052500I0J-237500D01*
G01*
X108585000Y-38652500D01*
G75*
G02*
X108347500Y-38890000I-237500J0D01*
G01*
X107872500Y-38890000D01*
G75*
G02*
X107635000Y-38652500I0J237500D01*
G01*
X107635000Y-38052500D01*
G75*
G02*
X107872500Y-37815000I237500J0D01*
G01*
G37*
G36*
G01*
X107872500Y-36090000D02*
X108347500Y-36090000D01*
G75*
G02*
X108585000Y-36327500I0J-237500D01*
G01*
X108585000Y-36927500D01*
G75*
G02*
X108347500Y-37165000I-237500J0D01*
G01*
X107872500Y-37165000D01*
G75*
G02*
X107635000Y-36927500I0J237500D01*
G01*
X107635000Y-36327500D01*
G75*
G02*
X107872500Y-36090000I237500J0D01*
G01*
G37*
%TD*%
%TO.C,C2*%
G36*
G01*
X110072500Y-33077500D02*
X110547500Y-33077500D01*
G75*
G02*
X110785000Y-33315000I0J-237500D01*
G01*
X110785000Y-33915000D01*
G75*
G02*
X110547500Y-34152500I-237500J0D01*
G01*
X110072500Y-34152500D01*
G75*
G02*
X109835000Y-33915000I0J237500D01*
G01*
X109835000Y-33315000D01*
G75*
G02*
X110072500Y-33077500I237500J0D01*
G01*
G37*
G36*
G01*
X110072500Y-31352500D02*
X110547500Y-31352500D01*
G75*
G02*
X110785000Y-31590000I0J-237500D01*
G01*
X110785000Y-32190000D01*
G75*
G02*
X110547500Y-32427500I-237500J0D01*
G01*
X110072500Y-32427500D01*
G75*
G02*
X109835000Y-32190000I0J237500D01*
G01*
X109835000Y-31590000D01*
G75*
G02*
X110072500Y-31352500I237500J0D01*
G01*
G37*
%TD*%
%TO.C,C1*%
G36*
G01*
X111772500Y-33077500D02*
X112247500Y-33077500D01*
G75*
G02*
X112485000Y-33315000I0J-237500D01*
G01*
X112485000Y-33915000D01*
G75*
G02*
X112247500Y-34152500I-237500J0D01*
G01*
X111772500Y-34152500D01*
G75*
G02*
X111535000Y-33915000I0J237500D01*
G01*
X111535000Y-33315000D01*
G75*
G02*
X111772500Y-33077500I237500J0D01*
G01*
G37*
G36*
G01*
X111772500Y-31352500D02*
X112247500Y-31352500D01*
G75*
G02*
X112485000Y-31590000I0J-237500D01*
G01*
X112485000Y-32190000D01*
G75*
G02*
X112247500Y-32427500I-237500J0D01*
G01*
X111772500Y-32427500D01*
G75*
G02*
X111535000Y-32190000I0J237500D01*
G01*
X111535000Y-31590000D01*
G75*
G02*
X111772500Y-31352500I237500J0D01*
G01*
G37*
%TD*%
M02*
