%TF.GenerationSoftware,KiCad,Pcbnew,(5.1.9)-1*%
%TF.CreationDate,2021-03-01T22:37:49-08:00*%
%TF.ProjectId,SD1326_I2C_breakout,53443133-3236-45f4-9932-435f62726561,0.1b*%
%TF.SameCoordinates,Original*%
%TF.FileFunction,Legend,Bot*%
%TF.FilePolarity,Positive*%
%FSLAX46Y46*%
G04 Gerber Fmt 4.6, Leading zero omitted, Abs format (unit mm)*
G04 Created by KiCad (PCBNEW (5.1.9)-1) date 2021-03-01 22:37:49*
%MOMM*%
%LPD*%
G01*
G04 APERTURE LIST*
%ADD10C,0.120000*%
%ADD11C,0.200000*%
%ADD12C,0.127000*%
%ADD13C,0.152400*%
%ADD14C,0.150000*%
%ADD15C,0.015000*%
G04 APERTURE END LIST*
D10*
%TO.C,C13*%
X77220000Y-37343733D02*
X77220000Y-37636267D01*
X76200000Y-37343733D02*
X76200000Y-37636267D01*
%TO.C,U4*%
X76820000Y-29190000D02*
X76820000Y-31640000D01*
X73600000Y-30990000D02*
X73600000Y-29190000D01*
D11*
%TO.C,U3*%
X81780000Y-30820000D02*
G75*
G03*
X81780000Y-30820000I-100000J0D01*
G01*
D12*
X84430000Y-28365000D02*
X84430000Y-29280000D01*
X84430000Y-31445000D02*
X84430000Y-30530000D01*
X83130000Y-28365000D02*
X84430000Y-28365000D01*
X83130000Y-31445000D02*
X84430000Y-31445000D01*
D13*
%TO.C,U1*%
X116810448Y-28696100D02*
X121052248Y-28696100D01*
X121052248Y-33953900D02*
X116810448Y-33953900D01*
D10*
%TO.C,R3*%
X101432500Y-37247776D02*
X101432500Y-37757224D01*
X100387500Y-37247776D02*
X100387500Y-37757224D01*
%TO.C,R2*%
X89332500Y-37235276D02*
X89332500Y-37744724D01*
X88287500Y-37235276D02*
X88287500Y-37744724D01*
%TO.C,R1*%
X90932500Y-37235276D02*
X90932500Y-37744724D01*
X89887500Y-37235276D02*
X89887500Y-37744724D01*
%TO.C,C12*%
X74720000Y-37343733D02*
X74720000Y-37636267D01*
X73700000Y-37343733D02*
X73700000Y-37636267D01*
%TO.C,C11*%
X96920000Y-37343733D02*
X96920000Y-37636267D01*
X95900000Y-37343733D02*
X95900000Y-37636267D01*
%TO.C,C10*%
X98720000Y-37343733D02*
X98720000Y-37636267D01*
X97700000Y-37343733D02*
X97700000Y-37636267D01*
%TO.C,C9*%
X95220000Y-37343733D02*
X95220000Y-37636267D01*
X94200000Y-37343733D02*
X94200000Y-37636267D01*
%TO.C,Ce*%
X103120000Y-37343733D02*
X103120000Y-37636267D01*
X102100000Y-37343733D02*
X102100000Y-37636267D01*
%TO.C,C7*%
X104820000Y-37343733D02*
X104820000Y-37636267D01*
X103800000Y-37343733D02*
X103800000Y-37636267D01*
%TO.C,C6*%
X119120000Y-37381233D02*
X119120000Y-37673767D01*
X118100000Y-37381233D02*
X118100000Y-37673767D01*
%TO.C,C5*%
X112220000Y-37343733D02*
X112220000Y-37636267D01*
X111200000Y-37343733D02*
X111200000Y-37636267D01*
%TO.C,C4*%
X110450000Y-37343733D02*
X110450000Y-37636267D01*
X109430000Y-37343733D02*
X109430000Y-37636267D01*
%TO.C,C3*%
X108620000Y-37343733D02*
X108620000Y-37636267D01*
X107600000Y-37343733D02*
X107600000Y-37636267D01*
%TO.C,C2*%
X110820000Y-32606233D02*
X110820000Y-32898767D01*
X109800000Y-32606233D02*
X109800000Y-32898767D01*
%TO.C,C1*%
X112520000Y-32606233D02*
X112520000Y-32898767D01*
X111500000Y-32606233D02*
X111500000Y-32898767D01*
%TO.C,C13*%
D14*
X75637142Y-36847142D02*
X75684761Y-36799523D01*
X75732380Y-36656666D01*
X75732380Y-36561428D01*
X75684761Y-36418571D01*
X75589523Y-36323333D01*
X75494285Y-36275714D01*
X75303809Y-36228095D01*
X75160952Y-36228095D01*
X74970476Y-36275714D01*
X74875238Y-36323333D01*
X74780000Y-36418571D01*
X74732380Y-36561428D01*
X74732380Y-36656666D01*
X74780000Y-36799523D01*
X74827619Y-36847142D01*
X75732380Y-37799523D02*
X75732380Y-37228095D01*
X75732380Y-37513809D02*
X74732380Y-37513809D01*
X74875238Y-37418571D01*
X74970476Y-37323333D01*
X75018095Y-37228095D01*
X74732380Y-38132857D02*
X74732380Y-38751904D01*
X75113333Y-38418571D01*
X75113333Y-38561428D01*
X75160952Y-38656666D01*
X75208571Y-38704285D01*
X75303809Y-38751904D01*
X75541904Y-38751904D01*
X75637142Y-38704285D01*
X75684761Y-38656666D01*
X75732380Y-38561428D01*
X75732380Y-38275714D01*
X75684761Y-38180476D01*
X75637142Y-38132857D01*
%TO.C,U4*%
X77562380Y-29328095D02*
X78371904Y-29328095D01*
X78467142Y-29375714D01*
X78514761Y-29423333D01*
X78562380Y-29518571D01*
X78562380Y-29709047D01*
X78514761Y-29804285D01*
X78467142Y-29851904D01*
X78371904Y-29899523D01*
X77562380Y-29899523D01*
X77895714Y-30804285D02*
X78562380Y-30804285D01*
X77514761Y-30566190D02*
X78229047Y-30328095D01*
X78229047Y-30947142D01*
%TO.C,U3*%
D15*
X84799619Y-31960923D02*
X84799619Y-32479019D01*
X84769142Y-32539971D01*
X84738666Y-32570447D01*
X84677714Y-32600923D01*
X84555809Y-32600923D01*
X84494857Y-32570447D01*
X84464380Y-32539971D01*
X84433904Y-32479019D01*
X84433904Y-31960923D01*
X84190095Y-31960923D02*
X83793904Y-31960923D01*
X84007238Y-32204733D01*
X83915809Y-32204733D01*
X83854857Y-32235209D01*
X83824380Y-32265685D01*
X83793904Y-32326638D01*
X83793904Y-32479019D01*
X83824380Y-32539971D01*
X83854857Y-32570447D01*
X83915809Y-32600923D01*
X84098666Y-32600923D01*
X84159619Y-32570447D01*
X84190095Y-32539971D01*
%TO.C,U1*%
D14*
X119693252Y-30777380D02*
X119693252Y-31586904D01*
X119645633Y-31682142D01*
X119598014Y-31729761D01*
X119502776Y-31777380D01*
X119312300Y-31777380D01*
X119217062Y-31729761D01*
X119169443Y-31682142D01*
X119121824Y-31586904D01*
X119121824Y-30777380D01*
X118121824Y-31777380D02*
X118693252Y-31777380D01*
X118407538Y-31777380D02*
X118407538Y-30777380D01*
X118502776Y-30920238D01*
X118598014Y-31015476D01*
X118693252Y-31063095D01*
X123955157Y-31777380D02*
X123955157Y-30777380D01*
X123621824Y-31491666D01*
X123288490Y-30777380D01*
X123288490Y-31777380D01*
X122859919Y-31491666D02*
X122383728Y-31491666D01*
X122955157Y-31777380D02*
X122621824Y-30777380D01*
X122288490Y-31777380D01*
X122050395Y-30777380D02*
X121383728Y-31777380D01*
X121383728Y-30777380D02*
X122050395Y-31777380D01*
X120574205Y-30777380D02*
X120764681Y-30777380D01*
X120859919Y-30825000D01*
X120907538Y-30872619D01*
X121002776Y-31015476D01*
X121050395Y-31205952D01*
X121050395Y-31586904D01*
X121002776Y-31682142D01*
X120955157Y-31729761D01*
X120859919Y-31777380D01*
X120669443Y-31777380D01*
X120574205Y-31729761D01*
X120526586Y-31682142D01*
X120478967Y-31586904D01*
X120478967Y-31348809D01*
X120526586Y-31253571D01*
X120574205Y-31205952D01*
X120669443Y-31158333D01*
X120859919Y-31158333D01*
X120955157Y-31205952D01*
X121002776Y-31253571D01*
X121050395Y-31348809D01*
X119859919Y-30777380D02*
X119764681Y-30777380D01*
X119669443Y-30825000D01*
X119621824Y-30872619D01*
X119574205Y-30967857D01*
X119526586Y-31158333D01*
X119526586Y-31396428D01*
X119574205Y-31586904D01*
X119621824Y-31682142D01*
X119669443Y-31729761D01*
X119764681Y-31777380D01*
X119859919Y-31777380D01*
X119955157Y-31729761D01*
X120002776Y-31682142D01*
X120050395Y-31586904D01*
X120098014Y-31396428D01*
X120098014Y-31158333D01*
X120050395Y-30967857D01*
X120002776Y-30872619D01*
X119955157Y-30825000D01*
X119859919Y-30777380D01*
X119193252Y-30777380D02*
X118526586Y-30777380D01*
X118955157Y-31777380D01*
X118145633Y-31253571D02*
X117812300Y-31253571D01*
X117669443Y-31777380D02*
X118145633Y-31777380D01*
X118145633Y-30777380D01*
X117669443Y-30777380D01*
X117288490Y-31729761D02*
X117145633Y-31777380D01*
X116907538Y-31777380D01*
X116812300Y-31729761D01*
X116764681Y-31682142D01*
X116717062Y-31586904D01*
X116717062Y-31491666D01*
X116764681Y-31396428D01*
X116812300Y-31348809D01*
X116907538Y-31301190D01*
X117098014Y-31253571D01*
X117193252Y-31205952D01*
X117240871Y-31158333D01*
X117288490Y-31063095D01*
X117288490Y-30967857D01*
X117240871Y-30872619D01*
X117193252Y-30825000D01*
X117098014Y-30777380D01*
X116859919Y-30777380D01*
X116717062Y-30825000D01*
X116336109Y-31491666D02*
X115859919Y-31491666D01*
X116431348Y-31777380D02*
X116098014Y-30777380D01*
X115764681Y-31777380D01*
X115431348Y-31396428D02*
X114669443Y-31396428D01*
X114336109Y-30777380D02*
X113764681Y-30777380D01*
X114050395Y-31777380D02*
X114050395Y-30777380D01*
X121906698Y-27196780D02*
X121906698Y-27434876D01*
X122144793Y-27339638D02*
X121906698Y-27434876D01*
X121668602Y-27339638D01*
X122049555Y-27625352D02*
X121906698Y-27434876D01*
X121763840Y-27625352D01*
X121906698Y-27196780D02*
X121906698Y-27434876D01*
X122144793Y-27339638D02*
X121906698Y-27434876D01*
X121668602Y-27339638D01*
X122049555Y-27625352D02*
X121906698Y-27434876D01*
X121763840Y-27625352D01*
%TO.C,R3*%
X99932380Y-37335833D02*
X99456190Y-37002500D01*
X99932380Y-36764404D02*
X98932380Y-36764404D01*
X98932380Y-37145357D01*
X98980000Y-37240595D01*
X99027619Y-37288214D01*
X99122857Y-37335833D01*
X99265714Y-37335833D01*
X99360952Y-37288214D01*
X99408571Y-37240595D01*
X99456190Y-37145357D01*
X99456190Y-36764404D01*
X98932380Y-37669166D02*
X98932380Y-38288214D01*
X99313333Y-37954880D01*
X99313333Y-38097738D01*
X99360952Y-38192976D01*
X99408571Y-38240595D01*
X99503809Y-38288214D01*
X99741904Y-38288214D01*
X99837142Y-38240595D01*
X99884761Y-38192976D01*
X99932380Y-38097738D01*
X99932380Y-37812023D01*
X99884761Y-37716785D01*
X99837142Y-37669166D01*
%TO.C,R2*%
X87832380Y-37323333D02*
X87356190Y-36990000D01*
X87832380Y-36751904D02*
X86832380Y-36751904D01*
X86832380Y-37132857D01*
X86880000Y-37228095D01*
X86927619Y-37275714D01*
X87022857Y-37323333D01*
X87165714Y-37323333D01*
X87260952Y-37275714D01*
X87308571Y-37228095D01*
X87356190Y-37132857D01*
X87356190Y-36751904D01*
X86927619Y-37704285D02*
X86880000Y-37751904D01*
X86832380Y-37847142D01*
X86832380Y-38085238D01*
X86880000Y-38180476D01*
X86927619Y-38228095D01*
X87022857Y-38275714D01*
X87118095Y-38275714D01*
X87260952Y-38228095D01*
X87832380Y-37656666D01*
X87832380Y-38275714D01*
%TO.C,R1*%
X89432380Y-37323333D02*
X88956190Y-36990000D01*
X89432380Y-36751904D02*
X88432380Y-36751904D01*
X88432380Y-37132857D01*
X88480000Y-37228095D01*
X88527619Y-37275714D01*
X88622857Y-37323333D01*
X88765714Y-37323333D01*
X88860952Y-37275714D01*
X88908571Y-37228095D01*
X88956190Y-37132857D01*
X88956190Y-36751904D01*
X89432380Y-38275714D02*
X89432380Y-37704285D01*
X89432380Y-37990000D02*
X88432380Y-37990000D01*
X88575238Y-37894761D01*
X88670476Y-37799523D01*
X88718095Y-37704285D01*
%TO.C,L1*%
X115226666Y-37142380D02*
X115702857Y-37142380D01*
X115702857Y-36142380D01*
X114369523Y-37142380D02*
X114940952Y-37142380D01*
X114655238Y-37142380D02*
X114655238Y-36142380D01*
X114750476Y-36285238D01*
X114845714Y-36380476D01*
X114940952Y-36428095D01*
%TO.C,D1*%
X114562380Y-29986904D02*
X113562380Y-29986904D01*
X113562380Y-30225000D01*
X113610000Y-30367857D01*
X113705238Y-30463095D01*
X113800476Y-30510714D01*
X113990952Y-30558333D01*
X114133809Y-30558333D01*
X114324285Y-30510714D01*
X114419523Y-30463095D01*
X114514761Y-30367857D01*
X114562380Y-30225000D01*
X114562380Y-29986904D01*
X114562380Y-31510714D02*
X114562380Y-30939285D01*
X114562380Y-31225000D02*
X113562380Y-31225000D01*
X113705238Y-31129761D01*
X113800476Y-31034523D01*
X113848095Y-30939285D01*
%TO.C,C12*%
X73137142Y-36847142D02*
X73184761Y-36799523D01*
X73232380Y-36656666D01*
X73232380Y-36561428D01*
X73184761Y-36418571D01*
X73089523Y-36323333D01*
X72994285Y-36275714D01*
X72803809Y-36228095D01*
X72660952Y-36228095D01*
X72470476Y-36275714D01*
X72375238Y-36323333D01*
X72280000Y-36418571D01*
X72232380Y-36561428D01*
X72232380Y-36656666D01*
X72280000Y-36799523D01*
X72327619Y-36847142D01*
X73232380Y-37799523D02*
X73232380Y-37228095D01*
X73232380Y-37513809D02*
X72232380Y-37513809D01*
X72375238Y-37418571D01*
X72470476Y-37323333D01*
X72518095Y-37228095D01*
X72327619Y-38180476D02*
X72280000Y-38228095D01*
X72232380Y-38323333D01*
X72232380Y-38561428D01*
X72280000Y-38656666D01*
X72327619Y-38704285D01*
X72422857Y-38751904D01*
X72518095Y-38751904D01*
X72660952Y-38704285D01*
X73232380Y-38132857D01*
X73232380Y-38751904D01*
%TO.C,C11*%
X95337142Y-36847142D02*
X95384761Y-36799523D01*
X95432380Y-36656666D01*
X95432380Y-36561428D01*
X95384761Y-36418571D01*
X95289523Y-36323333D01*
X95194285Y-36275714D01*
X95003809Y-36228095D01*
X94860952Y-36228095D01*
X94670476Y-36275714D01*
X94575238Y-36323333D01*
X94480000Y-36418571D01*
X94432380Y-36561428D01*
X94432380Y-36656666D01*
X94480000Y-36799523D01*
X94527619Y-36847142D01*
X95432380Y-37799523D02*
X95432380Y-37228095D01*
X95432380Y-37513809D02*
X94432380Y-37513809D01*
X94575238Y-37418571D01*
X94670476Y-37323333D01*
X94718095Y-37228095D01*
X95432380Y-38751904D02*
X95432380Y-38180476D01*
X95432380Y-38466190D02*
X94432380Y-38466190D01*
X94575238Y-38370952D01*
X94670476Y-38275714D01*
X94718095Y-38180476D01*
%TO.C,C10*%
X97137142Y-36847142D02*
X97184761Y-36799523D01*
X97232380Y-36656666D01*
X97232380Y-36561428D01*
X97184761Y-36418571D01*
X97089523Y-36323333D01*
X96994285Y-36275714D01*
X96803809Y-36228095D01*
X96660952Y-36228095D01*
X96470476Y-36275714D01*
X96375238Y-36323333D01*
X96280000Y-36418571D01*
X96232380Y-36561428D01*
X96232380Y-36656666D01*
X96280000Y-36799523D01*
X96327619Y-36847142D01*
X97232380Y-37799523D02*
X97232380Y-37228095D01*
X97232380Y-37513809D02*
X96232380Y-37513809D01*
X96375238Y-37418571D01*
X96470476Y-37323333D01*
X96518095Y-37228095D01*
X96232380Y-38418571D02*
X96232380Y-38513809D01*
X96280000Y-38609047D01*
X96327619Y-38656666D01*
X96422857Y-38704285D01*
X96613333Y-38751904D01*
X96851428Y-38751904D01*
X97041904Y-38704285D01*
X97137142Y-38656666D01*
X97184761Y-38609047D01*
X97232380Y-38513809D01*
X97232380Y-38418571D01*
X97184761Y-38323333D01*
X97137142Y-38275714D01*
X97041904Y-38228095D01*
X96851428Y-38180476D01*
X96613333Y-38180476D01*
X96422857Y-38228095D01*
X96327619Y-38275714D01*
X96280000Y-38323333D01*
X96232380Y-38418571D01*
%TO.C,C9*%
X93637142Y-37323333D02*
X93684761Y-37275714D01*
X93732380Y-37132857D01*
X93732380Y-37037619D01*
X93684761Y-36894761D01*
X93589523Y-36799523D01*
X93494285Y-36751904D01*
X93303809Y-36704285D01*
X93160952Y-36704285D01*
X92970476Y-36751904D01*
X92875238Y-36799523D01*
X92780000Y-36894761D01*
X92732380Y-37037619D01*
X92732380Y-37132857D01*
X92780000Y-37275714D01*
X92827619Y-37323333D01*
X93732380Y-37799523D02*
X93732380Y-37990000D01*
X93684761Y-38085238D01*
X93637142Y-38132857D01*
X93494285Y-38228095D01*
X93303809Y-38275714D01*
X92922857Y-38275714D01*
X92827619Y-38228095D01*
X92780000Y-38180476D01*
X92732380Y-38085238D01*
X92732380Y-37894761D01*
X92780000Y-37799523D01*
X92827619Y-37751904D01*
X92922857Y-37704285D01*
X93160952Y-37704285D01*
X93256190Y-37751904D01*
X93303809Y-37799523D01*
X93351428Y-37894761D01*
X93351428Y-38085238D01*
X93303809Y-38180476D01*
X93256190Y-38228095D01*
X93160952Y-38275714D01*
%TO.C,Ce*%
X101537142Y-37370952D02*
X101584761Y-37323333D01*
X101632380Y-37180476D01*
X101632380Y-37085238D01*
X101584761Y-36942380D01*
X101489523Y-36847142D01*
X101394285Y-36799523D01*
X101203809Y-36751904D01*
X101060952Y-36751904D01*
X100870476Y-36799523D01*
X100775238Y-36847142D01*
X100680000Y-36942380D01*
X100632380Y-37085238D01*
X100632380Y-37180476D01*
X100680000Y-37323333D01*
X100727619Y-37370952D01*
X101584761Y-38180476D02*
X101632380Y-38085238D01*
X101632380Y-37894761D01*
X101584761Y-37799523D01*
X101489523Y-37751904D01*
X101108571Y-37751904D01*
X101013333Y-37799523D01*
X100965714Y-37894761D01*
X100965714Y-38085238D01*
X101013333Y-38180476D01*
X101108571Y-38228095D01*
X101203809Y-38228095D01*
X101299047Y-37751904D01*
%TO.C,C7*%
X103237142Y-37323333D02*
X103284761Y-37275714D01*
X103332380Y-37132857D01*
X103332380Y-37037619D01*
X103284761Y-36894761D01*
X103189523Y-36799523D01*
X103094285Y-36751904D01*
X102903809Y-36704285D01*
X102760952Y-36704285D01*
X102570476Y-36751904D01*
X102475238Y-36799523D01*
X102380000Y-36894761D01*
X102332380Y-37037619D01*
X102332380Y-37132857D01*
X102380000Y-37275714D01*
X102427619Y-37323333D01*
X102332380Y-37656666D02*
X102332380Y-38323333D01*
X103332380Y-37894761D01*
%TO.C,C6*%
X117537142Y-37360833D02*
X117584761Y-37313214D01*
X117632380Y-37170357D01*
X117632380Y-37075119D01*
X117584761Y-36932261D01*
X117489523Y-36837023D01*
X117394285Y-36789404D01*
X117203809Y-36741785D01*
X117060952Y-36741785D01*
X116870476Y-36789404D01*
X116775238Y-36837023D01*
X116680000Y-36932261D01*
X116632380Y-37075119D01*
X116632380Y-37170357D01*
X116680000Y-37313214D01*
X116727619Y-37360833D01*
X116632380Y-38217976D02*
X116632380Y-38027500D01*
X116680000Y-37932261D01*
X116727619Y-37884642D01*
X116870476Y-37789404D01*
X117060952Y-37741785D01*
X117441904Y-37741785D01*
X117537142Y-37789404D01*
X117584761Y-37837023D01*
X117632380Y-37932261D01*
X117632380Y-38122738D01*
X117584761Y-38217976D01*
X117537142Y-38265595D01*
X117441904Y-38313214D01*
X117203809Y-38313214D01*
X117108571Y-38265595D01*
X117060952Y-38217976D01*
X117013333Y-38122738D01*
X117013333Y-37932261D01*
X117060952Y-37837023D01*
X117108571Y-37789404D01*
X117203809Y-37741785D01*
%TO.C,C5*%
X110637142Y-37323333D02*
X110684761Y-37275714D01*
X110732380Y-37132857D01*
X110732380Y-37037619D01*
X110684761Y-36894761D01*
X110589523Y-36799523D01*
X110494285Y-36751904D01*
X110303809Y-36704285D01*
X110160952Y-36704285D01*
X109970476Y-36751904D01*
X109875238Y-36799523D01*
X109780000Y-36894761D01*
X109732380Y-37037619D01*
X109732380Y-37132857D01*
X109780000Y-37275714D01*
X109827619Y-37323333D01*
X109732380Y-38228095D02*
X109732380Y-37751904D01*
X110208571Y-37704285D01*
X110160952Y-37751904D01*
X110113333Y-37847142D01*
X110113333Y-38085238D01*
X110160952Y-38180476D01*
X110208571Y-38228095D01*
X110303809Y-38275714D01*
X110541904Y-38275714D01*
X110637142Y-38228095D01*
X110684761Y-38180476D01*
X110732380Y-38085238D01*
X110732380Y-37847142D01*
X110684761Y-37751904D01*
X110637142Y-37704285D01*
%TO.C,C4*%
X108867142Y-37323333D02*
X108914761Y-37275714D01*
X108962380Y-37132857D01*
X108962380Y-37037619D01*
X108914761Y-36894761D01*
X108819523Y-36799523D01*
X108724285Y-36751904D01*
X108533809Y-36704285D01*
X108390952Y-36704285D01*
X108200476Y-36751904D01*
X108105238Y-36799523D01*
X108010000Y-36894761D01*
X107962380Y-37037619D01*
X107962380Y-37132857D01*
X108010000Y-37275714D01*
X108057619Y-37323333D01*
X108295714Y-38180476D02*
X108962380Y-38180476D01*
X107914761Y-37942380D02*
X108629047Y-37704285D01*
X108629047Y-38323333D01*
%TO.C,C3*%
X107037142Y-37323333D02*
X107084761Y-37275714D01*
X107132380Y-37132857D01*
X107132380Y-37037619D01*
X107084761Y-36894761D01*
X106989523Y-36799523D01*
X106894285Y-36751904D01*
X106703809Y-36704285D01*
X106560952Y-36704285D01*
X106370476Y-36751904D01*
X106275238Y-36799523D01*
X106180000Y-36894761D01*
X106132380Y-37037619D01*
X106132380Y-37132857D01*
X106180000Y-37275714D01*
X106227619Y-37323333D01*
X106132380Y-37656666D02*
X106132380Y-38275714D01*
X106513333Y-37942380D01*
X106513333Y-38085238D01*
X106560952Y-38180476D01*
X106608571Y-38228095D01*
X106703809Y-38275714D01*
X106941904Y-38275714D01*
X107037142Y-38228095D01*
X107084761Y-38180476D01*
X107132380Y-38085238D01*
X107132380Y-37799523D01*
X107084761Y-37704285D01*
X107037142Y-37656666D01*
%TO.C,C2*%
X109237142Y-32585833D02*
X109284761Y-32538214D01*
X109332380Y-32395357D01*
X109332380Y-32300119D01*
X109284761Y-32157261D01*
X109189523Y-32062023D01*
X109094285Y-32014404D01*
X108903809Y-31966785D01*
X108760952Y-31966785D01*
X108570476Y-32014404D01*
X108475238Y-32062023D01*
X108380000Y-32157261D01*
X108332380Y-32300119D01*
X108332380Y-32395357D01*
X108380000Y-32538214D01*
X108427619Y-32585833D01*
X108427619Y-32966785D02*
X108380000Y-33014404D01*
X108332380Y-33109642D01*
X108332380Y-33347738D01*
X108380000Y-33442976D01*
X108427619Y-33490595D01*
X108522857Y-33538214D01*
X108618095Y-33538214D01*
X108760952Y-33490595D01*
X109332380Y-32919166D01*
X109332380Y-33538214D01*
%TO.C,C1*%
X110937142Y-32585833D02*
X110984761Y-32538214D01*
X111032380Y-32395357D01*
X111032380Y-32300119D01*
X110984761Y-32157261D01*
X110889523Y-32062023D01*
X110794285Y-32014404D01*
X110603809Y-31966785D01*
X110460952Y-31966785D01*
X110270476Y-32014404D01*
X110175238Y-32062023D01*
X110080000Y-32157261D01*
X110032380Y-32300119D01*
X110032380Y-32395357D01*
X110080000Y-32538214D01*
X110127619Y-32585833D01*
X111032380Y-33538214D02*
X111032380Y-32966785D01*
X111032380Y-33252500D02*
X110032380Y-33252500D01*
X110175238Y-33157261D01*
X110270476Y-33062023D01*
X110318095Y-32966785D01*
%TD*%
M02*
