%TF.GenerationSoftware,KiCad,Pcbnew,(5.1.9)-1*%
%TF.CreationDate,2021-03-01T22:37:49-08:00*%
%TF.ProjectId,SD1326_I2C_breakout,53443133-3236-45f4-9932-435f62726561,0.1b*%
%TF.SameCoordinates,Original*%
%TF.FileFunction,Legend,Top*%
%TF.FilePolarity,Positive*%
%FSLAX46Y46*%
G04 Gerber Fmt 4.6, Leading zero omitted, Abs format (unit mm)*
G04 Created by KiCad (PCBNEW (5.1.9)-1) date 2021-03-01 22:37:49*
%MOMM*%
%LPD*%
G01*
G04 APERTURE LIST*
%ADD10C,0.120000*%
%ADD11C,0.150000*%
G04 APERTURE END LIST*
D10*
%TO.C,J1*%
X71450000Y-37890000D02*
X71450000Y-39220000D01*
X71450000Y-39220000D02*
X70120000Y-39220000D01*
X71440000Y-28950000D02*
X71440000Y-36630000D01*
X68780000Y-36630000D02*
X71440000Y-36630000D01*
X68780000Y-28950000D02*
X68780000Y-36630000D01*
X68780000Y-28950000D02*
X71440000Y-28950000D01*
D11*
X69776666Y-26962380D02*
X69776666Y-27676666D01*
X69729047Y-27819523D01*
X69633809Y-27914761D01*
X69490952Y-27962380D01*
X69395714Y-27962380D01*
X70776666Y-27962380D02*
X70205238Y-27962380D01*
X70490952Y-27962380D02*
X70490952Y-26962380D01*
X70395714Y-27105238D01*
X70300476Y-27200476D01*
X70205238Y-27248095D01*
%TO.C,REF\u002A\u002A*%
X96976666Y-39142380D02*
X96643333Y-38666190D01*
X96405238Y-39142380D02*
X96405238Y-38142380D01*
X96786190Y-38142380D01*
X96881428Y-38190000D01*
X96929047Y-38237619D01*
X96976666Y-38332857D01*
X96976666Y-38475714D01*
X96929047Y-38570952D01*
X96881428Y-38618571D01*
X96786190Y-38666190D01*
X96405238Y-38666190D01*
X97405238Y-38618571D02*
X97738571Y-38618571D01*
X97881428Y-39142380D02*
X97405238Y-39142380D01*
X97405238Y-38142380D01*
X97881428Y-38142380D01*
X98643333Y-38618571D02*
X98310000Y-38618571D01*
X98310000Y-39142380D02*
X98310000Y-38142380D01*
X98786190Y-38142380D01*
X99310000Y-38142380D02*
X99310000Y-38380476D01*
X99071904Y-38285238D02*
X99310000Y-38380476D01*
X99548095Y-38285238D01*
X99167142Y-38570952D02*
X99310000Y-38380476D01*
X99452857Y-38570952D01*
X100071904Y-38142380D02*
X100071904Y-38380476D01*
X99833809Y-38285238D02*
X100071904Y-38380476D01*
X100310000Y-38285238D01*
X99929047Y-38570952D02*
X100071904Y-38380476D01*
X100214761Y-38570952D01*
%TD*%
M02*
