M48
; DRILL file {KiCad (5.1.9)-1} date 03/03/21 23:02:35
; FORMAT={-:-/ absolute / inch / decimal}
; #@! TF.CreationDate,2021-03-03T23:02:35-08:00
; #@! TF.GenerationSoftware,Kicad,Pcbnew,(5.1.9)-1
; #@! TF.FileFunction,Plated,1,2,PTH
FMAT,2
INCH
T1C0.0157
T2C0.0394
%
G90
G05
T1
X2.8409Y-1.3736
X2.8427Y-1.1959
X2.8547Y-1.4445
X2.8744Y-1.2319
X2.965Y-1.2831
X2.965Y-1.5547
X3.0358Y-1.1728
X3.0673Y-1.4327
X3.1303Y-1.5547
X3.15Y-1.2122
X3.1933Y-1.1413
X3.1933Y-1.5114
X3.2957Y-1.3146
X3.2996Y-1.1453
X3.4413Y-1.1295
X3.4413Y-1.5594
X3.5043Y-1.3972
X3.6106Y-1.4051
X3.6106Y-1.5035
X3.6303Y-1.287
X3.6461Y-1.4406
X3.6539Y-1.3746
X3.6657Y-1.2201
X3.6892Y-1.4443
X3.772Y-1.2831
X3.7799Y-1.2122
X3.8193Y-1.3746
X3.8198Y-1.2127
X3.8925Y-1.3283
X3.898Y-1.2063
X3.9217Y-1.3933
X3.9295Y-1.4366
X3.9571Y-1.2043
X4.0398Y-1.3972
X4.0555Y-1.2043
X4.087Y-1.2555
X4.1264Y-1.1157
X4.1579Y-1.4366
X4.1618Y-1.1157
X4.2083Y-1.116
X4.2087Y-1.4409
X4.3031Y-1.3701
X4.3035Y-1.5587
X4.3268Y-1.2638
X4.3839Y-1.315
X4.3917Y-1.5098
X4.4528Y-1.5591
X4.4547Y-1.4764
X4.565Y-1.437
X4.6673Y-1.5098
X4.6673Y-1.3976
T2
X2.7602Y-1.1921
X2.7602Y-1.2921
X2.7602Y-1.3921
X2.7602Y-1.4921
T0
M30
