%TF.GenerationSoftware,KiCad,Pcbnew,(5.1.9)-1*%
%TF.CreationDate,2021-03-03T23:02:33-08:00*%
%TF.ProjectId,SSD1326_I2C_breakout,53534431-3332-4365-9f49-32435f627265,0.1b*%
%TF.SameCoordinates,Original*%
%TF.FileFunction,Copper,L2,Bot*%
%TF.FilePolarity,Positive*%
%FSLAX46Y46*%
G04 Gerber Fmt 4.6, Leading zero omitted, Abs format (unit mm)*
G04 Created by KiCad (PCBNEW (5.1.9)-1) date 2021-03-03 23:02:33*
%MOMM*%
%LPD*%
G01*
G04 APERTURE LIST*
%TA.AperFunction,SMDPad,CuDef*%
%ADD10R,1.220000X0.600000*%
%TD*%
%TA.AperFunction,SMDPad,CuDef*%
%ADD11R,0.950000X0.900000*%
%TD*%
%TA.AperFunction,ComponentPad*%
%ADD12R,1.700000X1.700000*%
%TD*%
%TA.AperFunction,ComponentPad*%
%ADD13O,1.700000X1.700000*%
%TD*%
%TA.AperFunction,ComponentPad*%
%ADD14C,1.700000*%
%TD*%
%TA.AperFunction,SMDPad,CuDef*%
%ADD15R,0.650000X1.060000*%
%TD*%
%TA.AperFunction,SMDPad,CuDef*%
%ADD16R,1.090000X0.610000*%
%TD*%
%TA.AperFunction,SMDPad,CuDef*%
%ADD17R,0.300000X1.250000*%
%TD*%
%TA.AperFunction,SMDPad,CuDef*%
%ADD18R,2.000000X3.000000*%
%TD*%
%TA.AperFunction,SMDPad,CuDef*%
%ADD19R,1.500000X4.200000*%
%TD*%
%TA.AperFunction,ViaPad*%
%ADD20C,0.800000*%
%TD*%
%TA.AperFunction,Conductor*%
%ADD21C,0.300000*%
%TD*%
%TA.AperFunction,Conductor*%
%ADD22C,0.250000*%
%TD*%
G04 APERTURE END LIST*
D10*
%TO.P,U5,6*%
%TO.N,+5V*%
X117145000Y-38400000D03*
%TO.P,U5,5*%
%TO.N,Net-(C1-Pad1)*%
X117145000Y-37450000D03*
%TO.P,U5,4*%
%TO.N,Net-(D1-Pad2)*%
X117145000Y-36500000D03*
%TO.P,U5,3*%
%TO.N,+5V*%
X114655000Y-36500000D03*
%TO.P,U5,2*%
%TO.N,GND*%
X114655000Y-37450000D03*
%TO.P,U5,1*%
%TO.N,Net-(C2-Pad2)*%
X114655000Y-38400000D03*
%TD*%
%TO.P,R5,2*%
%TO.N,GND*%
%TA.AperFunction,SMDPad,CuDef*%
G36*
G01*
X107962500Y-34112500D02*
X108437500Y-34112500D01*
G75*
G02*
X108675000Y-34350000I0J-237500D01*
G01*
X108675000Y-34850000D01*
G75*
G02*
X108437500Y-35087500I-237500J0D01*
G01*
X107962500Y-35087500D01*
G75*
G02*
X107725000Y-34850000I0J237500D01*
G01*
X107725000Y-34350000D01*
G75*
G02*
X107962500Y-34112500I237500J0D01*
G01*
G37*
%TD.AperFunction*%
%TO.P,R5,1*%
%TO.N,Net-(C2-Pad2)*%
%TA.AperFunction,SMDPad,CuDef*%
G36*
G01*
X107962500Y-32287500D02*
X108437500Y-32287500D01*
G75*
G02*
X108675000Y-32525000I0J-237500D01*
G01*
X108675000Y-33025000D01*
G75*
G02*
X108437500Y-33262500I-237500J0D01*
G01*
X107962500Y-33262500D01*
G75*
G02*
X107725000Y-33025000I0J237500D01*
G01*
X107725000Y-32525000D01*
G75*
G02*
X107962500Y-32287500I237500J0D01*
G01*
G37*
%TD.AperFunction*%
%TD*%
%TO.P,R4,2*%
%TO.N,Net-(C2-Pad2)*%
%TA.AperFunction,SMDPad,CuDef*%
G36*
G01*
X107962500Y-30512500D02*
X108437500Y-30512500D01*
G75*
G02*
X108675000Y-30750000I0J-237500D01*
G01*
X108675000Y-31250000D01*
G75*
G02*
X108437500Y-31487500I-237500J0D01*
G01*
X107962500Y-31487500D01*
G75*
G02*
X107725000Y-31250000I0J237500D01*
G01*
X107725000Y-30750000D01*
G75*
G02*
X107962500Y-30512500I237500J0D01*
G01*
G37*
%TD.AperFunction*%
%TO.P,R4,1*%
%TO.N,+12V*%
%TA.AperFunction,SMDPad,CuDef*%
G36*
G01*
X107962500Y-28687500D02*
X108437500Y-28687500D01*
G75*
G02*
X108675000Y-28925000I0J-237500D01*
G01*
X108675000Y-29425000D01*
G75*
G02*
X108437500Y-29662500I-237500J0D01*
G01*
X107962500Y-29662500D01*
G75*
G02*
X107725000Y-29425000I0J237500D01*
G01*
X107725000Y-28925000D01*
G75*
G02*
X107962500Y-28687500I237500J0D01*
G01*
G37*
%TD.AperFunction*%
%TD*%
D11*
%TO.P,D1,2*%
%TO.N,Net-(D1-Pad2)*%
X111400000Y-32300000D03*
%TO.P,D1,1*%
%TO.N,+12V*%
X111400000Y-29150000D03*
%TD*%
D12*
%TO.P,J1,4*%
%TO.N,GND*%
X70110000Y-37900000D03*
D13*
%TO.P,J1,3*%
%TO.N,+5V*%
X70110000Y-35360000D03*
%TO.P,J1,2*%
%TO.N,SCL*%
X70110000Y-32820000D03*
D14*
%TO.P,J1,1*%
%TO.N,SDA*%
X70110000Y-30280000D03*
%TD*%
%TO.P,C13,2*%
%TO.N,GND*%
%TA.AperFunction,SMDPad,CuDef*%
G36*
G01*
X76472500Y-37815000D02*
X76947500Y-37815000D01*
G75*
G02*
X77185000Y-38052500I0J-237500D01*
G01*
X77185000Y-38652500D01*
G75*
G02*
X76947500Y-38890000I-237500J0D01*
G01*
X76472500Y-38890000D01*
G75*
G02*
X76235000Y-38652500I0J237500D01*
G01*
X76235000Y-38052500D01*
G75*
G02*
X76472500Y-37815000I237500J0D01*
G01*
G37*
%TD.AperFunction*%
%TO.P,C13,1*%
%TO.N,+3V3*%
%TA.AperFunction,SMDPad,CuDef*%
G36*
G01*
X76472500Y-36090000D02*
X76947500Y-36090000D01*
G75*
G02*
X77185000Y-36327500I0J-237500D01*
G01*
X77185000Y-36927500D01*
G75*
G02*
X76947500Y-37165000I-237500J0D01*
G01*
X76472500Y-37165000D01*
G75*
G02*
X76235000Y-36927500I0J237500D01*
G01*
X76235000Y-36327500D01*
G75*
G02*
X76472500Y-36090000I237500J0D01*
G01*
G37*
%TD.AperFunction*%
%TD*%
D15*
%TO.P,U4,5*%
%TO.N,+3V3*%
X76160000Y-28990000D03*
%TO.P,U4,4*%
%TO.N,Net-(U4-Pad4)*%
X74260000Y-28990000D03*
%TO.P,U4,3*%
%TO.N,+5V*%
X74260000Y-31190000D03*
%TO.P,U4,2*%
%TO.N,GND*%
X75210000Y-31190000D03*
%TO.P,U4,1*%
%TO.N,+5V*%
X76160000Y-31190000D03*
%TD*%
D16*
%TO.P,U3,2*%
%TO.N,RES#*%
X82710000Y-28990000D03*
%TO.P,U3,3*%
%TO.N,+3V3*%
X84850000Y-29905000D03*
%TO.P,U3,1*%
%TO.N,GND*%
X82710000Y-30820000D03*
%TD*%
D17*
%TO.P,U2,25*%
%TO.N,+12V*%
X103510000Y-29290000D03*
%TO.P,U2,26*%
%TO.N,Net-(U2-Pad26)*%
X104010000Y-29290000D03*
%TO.P,U2,23*%
%TO.N,GND*%
X102510000Y-29290000D03*
%TO.P,U2,24*%
%TO.N,Net-(R3-Pad1)*%
X103010000Y-29290000D03*
%TO.P,U2,21*%
%TO.N,+3V3*%
X101510000Y-29290000D03*
%TO.P,U2,22*%
X102010000Y-29290000D03*
%TO.P,U2,19*%
X100510000Y-29290000D03*
%TO.P,U2,20*%
%TO.N,GND*%
X101010000Y-29290000D03*
%TO.P,U2,17*%
X99510000Y-29290000D03*
%TO.P,U2,18*%
X100010000Y-29290000D03*
%TO.P,U2,15*%
X98510000Y-29290000D03*
%TO.P,U2,16*%
%TO.N,RES#*%
X99010000Y-29290000D03*
%TO.P,U2,13*%
%TO.N,GND*%
X97510000Y-29290000D03*
%TO.P,U2,14*%
X98010000Y-29290000D03*
%TO.P,U2,11*%
%TO.N,SDA*%
X96510000Y-29290000D03*
%TO.P,U2,12*%
%TO.N,SCL*%
X97010000Y-29290000D03*
%TO.P,U2,9*%
%TO.N,GND*%
X95510000Y-29290000D03*
%TO.P,U2,10*%
%TO.N,SDA*%
X96010000Y-29290000D03*
%TO.P,U2,7*%
%TO.N,GND*%
X94510000Y-29290000D03*
%TO.P,U2,8*%
X95010000Y-29290000D03*
%TO.P,U2,5*%
X93510000Y-29290000D03*
%TO.P,U2,6*%
X94010000Y-29290000D03*
%TO.P,U2,3*%
%TO.N,Net-(C9-Pad1)*%
X92510000Y-29290000D03*
%TO.P,U2,4*%
%TO.N,GND*%
X93010000Y-29290000D03*
%TO.P,U2,1*%
%TO.N,Net-(U2-Pad1)*%
X91510000Y-29290000D03*
%TO.P,U2,2*%
%TO.N,+12V*%
X92010000Y-29290000D03*
D18*
%TO.P,U2,*%
%TO.N,*%
X89970000Y-31615000D03*
X105550000Y-31615000D03*
%TD*%
%TO.P,R3,2*%
%TO.N,GND*%
%TA.AperFunction,SMDPad,CuDef*%
G36*
G01*
X100672500Y-37927500D02*
X101147500Y-37927500D01*
G75*
G02*
X101385000Y-38165000I0J-237500D01*
G01*
X101385000Y-38665000D01*
G75*
G02*
X101147500Y-38902500I-237500J0D01*
G01*
X100672500Y-38902500D01*
G75*
G02*
X100435000Y-38665000I0J237500D01*
G01*
X100435000Y-38165000D01*
G75*
G02*
X100672500Y-37927500I237500J0D01*
G01*
G37*
%TD.AperFunction*%
%TO.P,R3,1*%
%TO.N,Net-(R3-Pad1)*%
%TA.AperFunction,SMDPad,CuDef*%
G36*
G01*
X100672500Y-36102500D02*
X101147500Y-36102500D01*
G75*
G02*
X101385000Y-36340000I0J-237500D01*
G01*
X101385000Y-36840000D01*
G75*
G02*
X101147500Y-37077500I-237500J0D01*
G01*
X100672500Y-37077500D01*
G75*
G02*
X100435000Y-36840000I0J237500D01*
G01*
X100435000Y-36340000D01*
G75*
G02*
X100672500Y-36102500I237500J0D01*
G01*
G37*
%TD.AperFunction*%
%TD*%
%TO.P,R2,2*%
%TO.N,+3V3*%
%TA.AperFunction,SMDPad,CuDef*%
G36*
G01*
X88572500Y-37915000D02*
X89047500Y-37915000D01*
G75*
G02*
X89285000Y-38152500I0J-237500D01*
G01*
X89285000Y-38652500D01*
G75*
G02*
X89047500Y-38890000I-237500J0D01*
G01*
X88572500Y-38890000D01*
G75*
G02*
X88335000Y-38652500I0J237500D01*
G01*
X88335000Y-38152500D01*
G75*
G02*
X88572500Y-37915000I237500J0D01*
G01*
G37*
%TD.AperFunction*%
%TO.P,R2,1*%
%TO.N,SDA*%
%TA.AperFunction,SMDPad,CuDef*%
G36*
G01*
X88572500Y-36090000D02*
X89047500Y-36090000D01*
G75*
G02*
X89285000Y-36327500I0J-237500D01*
G01*
X89285000Y-36827500D01*
G75*
G02*
X89047500Y-37065000I-237500J0D01*
G01*
X88572500Y-37065000D01*
G75*
G02*
X88335000Y-36827500I0J237500D01*
G01*
X88335000Y-36327500D01*
G75*
G02*
X88572500Y-36090000I237500J0D01*
G01*
G37*
%TD.AperFunction*%
%TD*%
%TO.P,R1,2*%
%TO.N,+3V3*%
%TA.AperFunction,SMDPad,CuDef*%
G36*
G01*
X90172500Y-37915000D02*
X90647500Y-37915000D01*
G75*
G02*
X90885000Y-38152500I0J-237500D01*
G01*
X90885000Y-38652500D01*
G75*
G02*
X90647500Y-38890000I-237500J0D01*
G01*
X90172500Y-38890000D01*
G75*
G02*
X89935000Y-38652500I0J237500D01*
G01*
X89935000Y-38152500D01*
G75*
G02*
X90172500Y-37915000I237500J0D01*
G01*
G37*
%TD.AperFunction*%
%TO.P,R1,1*%
%TO.N,SCL*%
%TA.AperFunction,SMDPad,CuDef*%
G36*
G01*
X90172500Y-36090000D02*
X90647500Y-36090000D01*
G75*
G02*
X90885000Y-36327500I0J-237500D01*
G01*
X90885000Y-36827500D01*
G75*
G02*
X90647500Y-37065000I-237500J0D01*
G01*
X90172500Y-37065000D01*
G75*
G02*
X89935000Y-36827500I0J237500D01*
G01*
X89935000Y-36327500D01*
G75*
G02*
X90172500Y-36090000I237500J0D01*
G01*
G37*
%TD.AperFunction*%
%TD*%
D19*
%TO.P,L1,1*%
%TO.N,Net-(C1-Pad1)*%
X115900000Y-30650000D03*
%TO.P,L1,2*%
%TO.N,Net-(D1-Pad2)*%
X113200000Y-30650000D03*
%TD*%
%TO.P,C12,2*%
%TO.N,GND*%
%TA.AperFunction,SMDPad,CuDef*%
G36*
G01*
X73972500Y-37815000D02*
X74447500Y-37815000D01*
G75*
G02*
X74685000Y-38052500I0J-237500D01*
G01*
X74685000Y-38652500D01*
G75*
G02*
X74447500Y-38890000I-237500J0D01*
G01*
X73972500Y-38890000D01*
G75*
G02*
X73735000Y-38652500I0J237500D01*
G01*
X73735000Y-38052500D01*
G75*
G02*
X73972500Y-37815000I237500J0D01*
G01*
G37*
%TD.AperFunction*%
%TO.P,C12,1*%
%TO.N,+5V*%
%TA.AperFunction,SMDPad,CuDef*%
G36*
G01*
X73972500Y-36090000D02*
X74447500Y-36090000D01*
G75*
G02*
X74685000Y-36327500I0J-237500D01*
G01*
X74685000Y-36927500D01*
G75*
G02*
X74447500Y-37165000I-237500J0D01*
G01*
X73972500Y-37165000D01*
G75*
G02*
X73735000Y-36927500I0J237500D01*
G01*
X73735000Y-36327500D01*
G75*
G02*
X73972500Y-36090000I237500J0D01*
G01*
G37*
%TD.AperFunction*%
%TD*%
%TO.P,C11,2*%
%TO.N,GND*%
%TA.AperFunction,SMDPad,CuDef*%
G36*
G01*
X96172500Y-37815000D02*
X96647500Y-37815000D01*
G75*
G02*
X96885000Y-38052500I0J-237500D01*
G01*
X96885000Y-38652500D01*
G75*
G02*
X96647500Y-38890000I-237500J0D01*
G01*
X96172500Y-38890000D01*
G75*
G02*
X95935000Y-38652500I0J237500D01*
G01*
X95935000Y-38052500D01*
G75*
G02*
X96172500Y-37815000I237500J0D01*
G01*
G37*
%TD.AperFunction*%
%TO.P,C11,1*%
%TO.N,+3V3*%
%TA.AperFunction,SMDPad,CuDef*%
G36*
G01*
X96172500Y-36090000D02*
X96647500Y-36090000D01*
G75*
G02*
X96885000Y-36327500I0J-237500D01*
G01*
X96885000Y-36927500D01*
G75*
G02*
X96647500Y-37165000I-237500J0D01*
G01*
X96172500Y-37165000D01*
G75*
G02*
X95935000Y-36927500I0J237500D01*
G01*
X95935000Y-36327500D01*
G75*
G02*
X96172500Y-36090000I237500J0D01*
G01*
G37*
%TD.AperFunction*%
%TD*%
%TO.P,C10,2*%
%TO.N,GND*%
%TA.AperFunction,SMDPad,CuDef*%
G36*
G01*
X97972500Y-37815000D02*
X98447500Y-37815000D01*
G75*
G02*
X98685000Y-38052500I0J-237500D01*
G01*
X98685000Y-38652500D01*
G75*
G02*
X98447500Y-38890000I-237500J0D01*
G01*
X97972500Y-38890000D01*
G75*
G02*
X97735000Y-38652500I0J237500D01*
G01*
X97735000Y-38052500D01*
G75*
G02*
X97972500Y-37815000I237500J0D01*
G01*
G37*
%TD.AperFunction*%
%TO.P,C10,1*%
%TO.N,+3V3*%
%TA.AperFunction,SMDPad,CuDef*%
G36*
G01*
X97972500Y-36090000D02*
X98447500Y-36090000D01*
G75*
G02*
X98685000Y-36327500I0J-237500D01*
G01*
X98685000Y-36927500D01*
G75*
G02*
X98447500Y-37165000I-237500J0D01*
G01*
X97972500Y-37165000D01*
G75*
G02*
X97735000Y-36927500I0J237500D01*
G01*
X97735000Y-36327500D01*
G75*
G02*
X97972500Y-36090000I237500J0D01*
G01*
G37*
%TD.AperFunction*%
%TD*%
%TO.P,C9,2*%
%TO.N,GND*%
%TA.AperFunction,SMDPad,CuDef*%
G36*
G01*
X94472500Y-37815000D02*
X94947500Y-37815000D01*
G75*
G02*
X95185000Y-38052500I0J-237500D01*
G01*
X95185000Y-38652500D01*
G75*
G02*
X94947500Y-38890000I-237500J0D01*
G01*
X94472500Y-38890000D01*
G75*
G02*
X94235000Y-38652500I0J237500D01*
G01*
X94235000Y-38052500D01*
G75*
G02*
X94472500Y-37815000I237500J0D01*
G01*
G37*
%TD.AperFunction*%
%TO.P,C9,1*%
%TO.N,Net-(C9-Pad1)*%
%TA.AperFunction,SMDPad,CuDef*%
G36*
G01*
X94472500Y-36090000D02*
X94947500Y-36090000D01*
G75*
G02*
X95185000Y-36327500I0J-237500D01*
G01*
X95185000Y-36927500D01*
G75*
G02*
X94947500Y-37165000I-237500J0D01*
G01*
X94472500Y-37165000D01*
G75*
G02*
X94235000Y-36927500I0J237500D01*
G01*
X94235000Y-36327500D01*
G75*
G02*
X94472500Y-36090000I237500J0D01*
G01*
G37*
%TD.AperFunction*%
%TD*%
%TO.P,C8,2*%
%TO.N,GND*%
%TA.AperFunction,SMDPad,CuDef*%
G36*
G01*
X102372500Y-37815000D02*
X102847500Y-37815000D01*
G75*
G02*
X103085000Y-38052500I0J-237500D01*
G01*
X103085000Y-38652500D01*
G75*
G02*
X102847500Y-38890000I-237500J0D01*
G01*
X102372500Y-38890000D01*
G75*
G02*
X102135000Y-38652500I0J237500D01*
G01*
X102135000Y-38052500D01*
G75*
G02*
X102372500Y-37815000I237500J0D01*
G01*
G37*
%TD.AperFunction*%
%TO.P,C8,1*%
%TO.N,+12V*%
%TA.AperFunction,SMDPad,CuDef*%
G36*
G01*
X102372500Y-36090000D02*
X102847500Y-36090000D01*
G75*
G02*
X103085000Y-36327500I0J-237500D01*
G01*
X103085000Y-36927500D01*
G75*
G02*
X102847500Y-37165000I-237500J0D01*
G01*
X102372500Y-37165000D01*
G75*
G02*
X102135000Y-36927500I0J237500D01*
G01*
X102135000Y-36327500D01*
G75*
G02*
X102372500Y-36090000I237500J0D01*
G01*
G37*
%TD.AperFunction*%
%TD*%
%TO.P,C7,2*%
%TO.N,GND*%
%TA.AperFunction,SMDPad,CuDef*%
G36*
G01*
X104072500Y-37815000D02*
X104547500Y-37815000D01*
G75*
G02*
X104785000Y-38052500I0J-237500D01*
G01*
X104785000Y-38652500D01*
G75*
G02*
X104547500Y-38890000I-237500J0D01*
G01*
X104072500Y-38890000D01*
G75*
G02*
X103835000Y-38652500I0J237500D01*
G01*
X103835000Y-38052500D01*
G75*
G02*
X104072500Y-37815000I237500J0D01*
G01*
G37*
%TD.AperFunction*%
%TO.P,C7,1*%
%TO.N,+12V*%
%TA.AperFunction,SMDPad,CuDef*%
G36*
G01*
X104072500Y-35952500D02*
X104547500Y-35952500D01*
G75*
G02*
X104785000Y-36190000I0J-237500D01*
G01*
X104785000Y-36790000D01*
G75*
G02*
X104547500Y-37027500I-237500J0D01*
G01*
X104072500Y-37027500D01*
G75*
G02*
X103835000Y-36790000I0J237500D01*
G01*
X103835000Y-36190000D01*
G75*
G02*
X104072500Y-35952500I237500J0D01*
G01*
G37*
%TD.AperFunction*%
%TD*%
%TO.P,C5,2*%
%TO.N,GND*%
%TA.AperFunction,SMDPad,CuDef*%
G36*
G01*
X110212500Y-37815000D02*
X110687500Y-37815000D01*
G75*
G02*
X110925000Y-38052500I0J-237500D01*
G01*
X110925000Y-38652500D01*
G75*
G02*
X110687500Y-38890000I-237500J0D01*
G01*
X110212500Y-38890000D01*
G75*
G02*
X109975000Y-38652500I0J237500D01*
G01*
X109975000Y-38052500D01*
G75*
G02*
X110212500Y-37815000I237500J0D01*
G01*
G37*
%TD.AperFunction*%
%TO.P,C5,1*%
%TO.N,+5V*%
%TA.AperFunction,SMDPad,CuDef*%
G36*
G01*
X110212500Y-36090000D02*
X110687500Y-36090000D01*
G75*
G02*
X110925000Y-36327500I0J-237500D01*
G01*
X110925000Y-36927500D01*
G75*
G02*
X110687500Y-37165000I-237500J0D01*
G01*
X110212500Y-37165000D01*
G75*
G02*
X109975000Y-36927500I0J237500D01*
G01*
X109975000Y-36327500D01*
G75*
G02*
X110212500Y-36090000I237500J0D01*
G01*
G37*
%TD.AperFunction*%
%TD*%
%TO.P,C3,2*%
%TO.N,GND*%
%TA.AperFunction,SMDPad,CuDef*%
G36*
G01*
X107872500Y-37815000D02*
X108347500Y-37815000D01*
G75*
G02*
X108585000Y-38052500I0J-237500D01*
G01*
X108585000Y-38652500D01*
G75*
G02*
X108347500Y-38890000I-237500J0D01*
G01*
X107872500Y-38890000D01*
G75*
G02*
X107635000Y-38652500I0J237500D01*
G01*
X107635000Y-38052500D01*
G75*
G02*
X107872500Y-37815000I237500J0D01*
G01*
G37*
%TD.AperFunction*%
%TO.P,C3,1*%
%TO.N,+12V*%
%TA.AperFunction,SMDPad,CuDef*%
G36*
G01*
X107872500Y-36090000D02*
X108347500Y-36090000D01*
G75*
G02*
X108585000Y-36327500I0J-237500D01*
G01*
X108585000Y-36927500D01*
G75*
G02*
X108347500Y-37165000I-237500J0D01*
G01*
X107872500Y-37165000D01*
G75*
G02*
X107635000Y-36927500I0J237500D01*
G01*
X107635000Y-36327500D01*
G75*
G02*
X107872500Y-36090000I237500J0D01*
G01*
G37*
%TD.AperFunction*%
%TD*%
%TO.P,C2,2*%
%TO.N,Net-(C2-Pad2)*%
%TA.AperFunction,SMDPad,CuDef*%
G36*
G01*
X109662500Y-30412500D02*
X110137500Y-30412500D01*
G75*
G02*
X110375000Y-30650000I0J-237500D01*
G01*
X110375000Y-31250000D01*
G75*
G02*
X110137500Y-31487500I-237500J0D01*
G01*
X109662500Y-31487500D01*
G75*
G02*
X109425000Y-31250000I0J237500D01*
G01*
X109425000Y-30650000D01*
G75*
G02*
X109662500Y-30412500I237500J0D01*
G01*
G37*
%TD.AperFunction*%
%TO.P,C2,1*%
%TO.N,+12V*%
%TA.AperFunction,SMDPad,CuDef*%
G36*
G01*
X109662500Y-28687500D02*
X110137500Y-28687500D01*
G75*
G02*
X110375000Y-28925000I0J-237500D01*
G01*
X110375000Y-29525000D01*
G75*
G02*
X110137500Y-29762500I-237500J0D01*
G01*
X109662500Y-29762500D01*
G75*
G02*
X109425000Y-29525000I0J237500D01*
G01*
X109425000Y-28925000D01*
G75*
G02*
X109662500Y-28687500I237500J0D01*
G01*
G37*
%TD.AperFunction*%
%TD*%
%TO.P,C1,2*%
%TO.N,GND*%
%TA.AperFunction,SMDPad,CuDef*%
G36*
G01*
X119712500Y-37815000D02*
X120187500Y-37815000D01*
G75*
G02*
X120425000Y-38052500I0J-237500D01*
G01*
X120425000Y-38652500D01*
G75*
G02*
X120187500Y-38890000I-237500J0D01*
G01*
X119712500Y-38890000D01*
G75*
G02*
X119475000Y-38652500I0J237500D01*
G01*
X119475000Y-38052500D01*
G75*
G02*
X119712500Y-37815000I237500J0D01*
G01*
G37*
%TD.AperFunction*%
%TO.P,C1,1*%
%TO.N,Net-(C1-Pad1)*%
%TA.AperFunction,SMDPad,CuDef*%
G36*
G01*
X119712500Y-36090000D02*
X120187500Y-36090000D01*
G75*
G02*
X120425000Y-36327500I0J-237500D01*
G01*
X120425000Y-36927500D01*
G75*
G02*
X120187500Y-37165000I-237500J0D01*
G01*
X119712500Y-37165000D01*
G75*
G02*
X119475000Y-36927500I0J237500D01*
G01*
X119475000Y-36327500D01*
G75*
G02*
X119712500Y-36090000I237500J0D01*
G01*
G37*
%TD.AperFunction*%
%TD*%
D20*
%TO.N,GND*%
X75310002Y-39489998D03*
X80010000Y-30790000D03*
X79510000Y-39490000D03*
X75310000Y-32590000D03*
X87410000Y-28690000D03*
X87410004Y-39610000D03*
X109310000Y-39590000D03*
X109300000Y-34800000D03*
X113150000Y-37500000D03*
X113100000Y-39600000D03*
%TO.N,+12V*%
X105610000Y-36490000D03*
X102610000Y-35490010D03*
X103809996Y-31890000D03*
X104810000Y-28340012D03*
X105710000Y-28340024D03*
X106900000Y-36600000D03*
X106889990Y-28346838D03*
%TO.N,+5V*%
X72510000Y-36690000D03*
X73010000Y-31290000D03*
X118550000Y-38350000D03*
X118550004Y-35500000D03*
%TO.N,Net-(C9-Pad1)*%
X93705614Y-36685614D03*
X93110000Y-30990000D03*
%TO.N,+3V3*%
X81110000Y-28990000D03*
X77110000Y-29790000D03*
X91710000Y-38190000D03*
X99610000Y-35390000D03*
X77910000Y-36390000D03*
X91710000Y-35689998D03*
X100509992Y-30590000D03*
X81110000Y-38389996D03*
%TO.N,Net-(D1-Pad2)*%
X111350000Y-33400000D03*
X115949894Y-36500000D03*
%TO.N,SCL*%
X92610000Y-36590000D03*
X92810000Y-34915021D03*
X97010000Y-34915021D03*
X97022657Y-30802663D03*
%TO.N,SDA*%
X72203857Y-30376177D03*
X72160000Y-34890000D03*
X89010000Y-35490000D03*
X95810000Y-32590001D03*
X96010000Y-30790000D03*
X92210000Y-32689999D03*
%TO.N,Net-(R3-Pad1)*%
X99810000Y-36490000D03*
X103010000Y-30590000D03*
%TO.N,RES#*%
X83810000Y-29090000D03*
X83710000Y-33390000D03*
X98869071Y-33740010D03*
X99009999Y-30640007D03*
%TO.N,Net-(C2-Pad2)*%
X109900002Y-32100000D03*
X111550000Y-38350000D03*
%TD*%
D21*
%TO.N,GND*%
X70110000Y-38110000D02*
X71490000Y-39490000D01*
X77310000Y-39490000D02*
X79510000Y-39490000D01*
X76310000Y-39490000D02*
X75310000Y-39490000D01*
X74310000Y-39490000D02*
X75310000Y-39490000D01*
X75310000Y-39490000D02*
X75310002Y-39489998D01*
X80040000Y-30820000D02*
X80010000Y-30790000D01*
X82710000Y-30820000D02*
X80040000Y-30820000D01*
X96810000Y-39590000D02*
X98610000Y-39590000D01*
X100940000Y-39560000D02*
X100910000Y-39590000D01*
X98610000Y-39590000D02*
X100910000Y-39590000D01*
X97510000Y-29290000D02*
X97510001Y-28384999D01*
X100010000Y-29290000D02*
X100010000Y-28390000D01*
X99510000Y-28384998D02*
X99510000Y-29290000D01*
X93510000Y-29290000D02*
X93510000Y-28490000D01*
X93510000Y-28490000D02*
X93510000Y-28290000D01*
X93010000Y-28290000D02*
X93010000Y-29290000D01*
X94010000Y-28290000D02*
X93010000Y-28290000D01*
X94010000Y-29290000D02*
X94010000Y-28290000D01*
X94510000Y-28490000D02*
X94510000Y-29290000D01*
X94510000Y-28290000D02*
X94510000Y-28490000D01*
X95010000Y-28290000D02*
X94510000Y-28290000D01*
X95010000Y-29290000D02*
X95010000Y-28290000D01*
X94010000Y-28290000D02*
X94510000Y-28290000D01*
X97510001Y-28384999D02*
X97510001Y-28290001D01*
X98010000Y-29290000D02*
X98010000Y-28290000D01*
X98010000Y-28290000D02*
X97210000Y-28290000D01*
X98510000Y-29290000D02*
X98510000Y-28290000D01*
X98610000Y-28290000D02*
X98010000Y-28290000D01*
X98510000Y-28290000D02*
X98610000Y-28290000D01*
X99510000Y-28384998D02*
X99510000Y-28290000D01*
X100010000Y-28390000D02*
X100010000Y-28290000D01*
X98610000Y-28290000D02*
X99510000Y-28290000D01*
X99510000Y-28290000D02*
X100010000Y-28290000D01*
X102510000Y-28290000D02*
X102510000Y-29290000D01*
X101010000Y-28290000D02*
X101010000Y-29290000D01*
X100010000Y-28290000D02*
X101010000Y-28290000D01*
X101010000Y-28290000D02*
X102510000Y-28290000D01*
X100910000Y-39590000D02*
X100910000Y-38415000D01*
X100910000Y-39590000D02*
X102710000Y-39590000D01*
X102610000Y-39590000D02*
X104410000Y-39590000D01*
X102610000Y-38390000D02*
X102610000Y-39590000D01*
X96410000Y-38352500D02*
X96410000Y-39590000D01*
X96410000Y-39590000D02*
X96810000Y-39590000D01*
X98210000Y-39590000D02*
X98610000Y-39590000D01*
X98210000Y-38490000D02*
X98210000Y-39590000D01*
X95510000Y-28390000D02*
X95610000Y-28290000D01*
X95510000Y-29290000D02*
X95510000Y-28390000D01*
X95610000Y-28290000D02*
X97210000Y-28290000D01*
X95010000Y-28290000D02*
X95610000Y-28290000D01*
X108110000Y-38470000D02*
X108110000Y-39590000D01*
X76710000Y-39390000D02*
X76810000Y-39490000D01*
X76710000Y-38390000D02*
X76710000Y-39390000D01*
X76810000Y-39490000D02*
X77310000Y-39490000D01*
X76310000Y-39490000D02*
X76810000Y-39490000D01*
X74210000Y-38352500D02*
X74210000Y-39490000D01*
X74210000Y-39490000D02*
X74310000Y-39490000D01*
X71490000Y-39490000D02*
X74210000Y-39490000D01*
X75210000Y-32490000D02*
X75310000Y-32590000D01*
X75210000Y-31190000D02*
X75210000Y-32490000D01*
X94810000Y-39590000D02*
X96410000Y-39590000D01*
X94710000Y-39490000D02*
X94810000Y-39590000D01*
X94710000Y-38352500D02*
X94710000Y-39490000D01*
X93010000Y-28290000D02*
X87809999Y-28290001D01*
X87809999Y-28290001D02*
X87410000Y-28690000D01*
X79510000Y-39490000D02*
X87290004Y-39490000D01*
X87290004Y-39490000D02*
X87410004Y-39610000D01*
X89990001Y-40009999D02*
X87810003Y-40009999D01*
X87810003Y-40009999D02*
X87410004Y-39610000D01*
X90410000Y-39590000D02*
X89990001Y-40009999D01*
X94710000Y-39590000D02*
X90410000Y-39590000D01*
X106610000Y-39600000D02*
X106620000Y-39590000D01*
X106600000Y-39590000D02*
X106610000Y-39600000D01*
X104310000Y-39590000D02*
X106600000Y-39590000D01*
X104310000Y-38352500D02*
X104310000Y-39590000D01*
X106620000Y-39590000D02*
X109310000Y-39590000D01*
X108700000Y-34800000D02*
X108200000Y-34800000D01*
X109300000Y-34800000D02*
X108700000Y-34800000D01*
X110440000Y-38362500D02*
X110450000Y-38352500D01*
X110440000Y-39590000D02*
X110440000Y-38362500D01*
X110440000Y-39590000D02*
X109310000Y-39590000D01*
X111050000Y-39600000D02*
X110050000Y-39600000D01*
X111400000Y-39600000D02*
X111390000Y-39590000D01*
X111390000Y-39590000D02*
X110440000Y-39590000D01*
X113200000Y-37450000D02*
X113150000Y-37500000D01*
X114655000Y-37450000D02*
X113200000Y-37450000D01*
X113100000Y-39600000D02*
X111400000Y-39600000D01*
X118700000Y-39600000D02*
X119950000Y-38350000D01*
X113100000Y-39600000D02*
X118700000Y-39600000D01*
%TO.N,+12V*%
X103510000Y-28384998D02*
X103510000Y-29290000D01*
X103604998Y-28290000D02*
X103510000Y-28384998D01*
X107010000Y-28290000D02*
X103604998Y-28290000D01*
X108510000Y-28290000D02*
X107010000Y-28290000D01*
X108510000Y-28290000D02*
X110410000Y-28290000D01*
X104310000Y-36490000D02*
X105610000Y-36490000D01*
X102610000Y-36665000D02*
X102610000Y-35490010D01*
X92560001Y-31840001D02*
X103759997Y-31840001D01*
X103759997Y-31840001D02*
X103809996Y-31890000D01*
X92010000Y-31290000D02*
X92560001Y-31840001D01*
X92010000Y-29290000D02*
X92010000Y-31290000D01*
X106927500Y-36627500D02*
X106900000Y-36600000D01*
X108110000Y-36627500D02*
X106927500Y-36627500D01*
X108200000Y-28400000D02*
X108310000Y-28290000D01*
X108200000Y-29175000D02*
X108200000Y-28400000D01*
X108310000Y-28290000D02*
X107010000Y-28290000D01*
X109900000Y-28400000D02*
X110010000Y-28290000D01*
X109900000Y-29225000D02*
X109900000Y-28400000D01*
X110010000Y-28290000D02*
X108310000Y-28290000D01*
X110410000Y-28290000D02*
X110010000Y-28290000D01*
X110690000Y-28290000D02*
X108510000Y-28290000D01*
X111400000Y-29000000D02*
X110690000Y-28290000D01*
X111400000Y-29150000D02*
X111400000Y-29000000D01*
%TO.N,+5V*%
X74260000Y-31190000D02*
X74260000Y-31420000D01*
X73585000Y-31190000D02*
X74260000Y-31190000D01*
X73585000Y-30765000D02*
X74210000Y-30140000D01*
X73585000Y-31190000D02*
X73585000Y-30765000D01*
X76160000Y-30360000D02*
X76160000Y-31190000D01*
X75940000Y-30140000D02*
X76160000Y-30360000D01*
X74210000Y-30140000D02*
X75940000Y-30140000D01*
X74210000Y-36627500D02*
X72572500Y-36627500D01*
X72572500Y-36627500D02*
X72510000Y-36690000D01*
X73585000Y-31190000D02*
X73110000Y-31190000D01*
X73110000Y-31190000D02*
X73010000Y-31290000D01*
X76160000Y-31190000D02*
X79299998Y-31190000D01*
X104199998Y-35590000D02*
X105310000Y-35590000D01*
X79299998Y-31190000D02*
X82275009Y-34165011D01*
X82275009Y-34165011D02*
X97785011Y-34165011D01*
X103199998Y-34590000D02*
X104199998Y-35590000D01*
X97785011Y-34165011D02*
X98210000Y-34590000D01*
X98210000Y-34590000D02*
X103199998Y-34590000D01*
X71140000Y-35320000D02*
X72510000Y-36690000D01*
X70360000Y-35320000D02*
X71140000Y-35320000D01*
X70110000Y-35570000D02*
X70360000Y-35320000D01*
X110450000Y-35700000D02*
X110560000Y-35590000D01*
X110450000Y-36627500D02*
X110450000Y-35700000D01*
X105410000Y-35590000D02*
X110560000Y-35590000D01*
X111490000Y-35590000D02*
X110560000Y-35590000D01*
X111500000Y-35600000D02*
X111490000Y-35590000D01*
X111500000Y-35600000D02*
X113250000Y-35600000D01*
X114600000Y-36450000D02*
X114200000Y-36450000D01*
X114600000Y-35600000D02*
X114600000Y-36450000D01*
X118500000Y-38400000D02*
X118550000Y-38350000D01*
X117145000Y-38400000D02*
X118500000Y-38400000D01*
X112650000Y-35600000D02*
X118450004Y-35600000D01*
X118450004Y-35600000D02*
X118550004Y-35500000D01*
D22*
%TO.N,Net-(C9-Pad1)*%
X93763728Y-36627500D02*
X93705614Y-36685614D01*
X94710000Y-36627500D02*
X93763728Y-36627500D01*
X92510000Y-30390000D02*
X93110000Y-30990000D01*
X92510000Y-29290000D02*
X92510000Y-30390000D01*
D21*
%TO.N,+3V3*%
X76310000Y-28990000D02*
X77110000Y-29790000D01*
X76160000Y-28990000D02*
X76310000Y-28990000D01*
X76160000Y-28990000D02*
X81110000Y-28990000D01*
X82025000Y-29905000D02*
X84850000Y-29905000D01*
X81110000Y-28990000D02*
X82025000Y-29905000D01*
X90410000Y-38190000D02*
X90747500Y-38190000D01*
X100510000Y-30500002D02*
X100510000Y-29290000D01*
X101510000Y-30195002D02*
X101510000Y-29290000D01*
X101205000Y-30500002D02*
X101510000Y-30195002D01*
X100510000Y-30500002D02*
X101205000Y-30500002D01*
X102010000Y-30390000D02*
X102010000Y-29290000D01*
X101899998Y-30500002D02*
X102010000Y-30390000D01*
X101205000Y-30500002D02*
X101899998Y-30500002D01*
X76947500Y-36390000D02*
X76710000Y-36627500D01*
X77910000Y-36390000D02*
X76947500Y-36390000D01*
X95472500Y-35690000D02*
X96410000Y-36627500D01*
X94710000Y-35690000D02*
X95472500Y-35690000D01*
X99310000Y-35690000D02*
X99610000Y-35390000D01*
X96810000Y-35690000D02*
X99310000Y-35690000D01*
X97272500Y-35690000D02*
X98210000Y-36627500D01*
X94984942Y-35690000D02*
X97272500Y-35690000D01*
X94984940Y-35689998D02*
X94984942Y-35690000D01*
X91710000Y-35689998D02*
X94984940Y-35689998D01*
X100510000Y-30500002D02*
X100510000Y-30589992D01*
X100510000Y-30589992D02*
X100509992Y-30590000D01*
X88810000Y-38402500D02*
X88810000Y-38390000D01*
X88810000Y-38390000D02*
X87210000Y-38390000D01*
X91410000Y-38490000D02*
X91710000Y-38190000D01*
X90710000Y-38490000D02*
X91410000Y-38490000D01*
X90410000Y-38190000D02*
X90710000Y-38490000D01*
X87310000Y-38390000D02*
X88210000Y-39290000D01*
X87210000Y-38390000D02*
X87310000Y-38390000D01*
X88210000Y-39290000D02*
X89710000Y-39290000D01*
X90410000Y-38590000D02*
X90410000Y-38190000D01*
X89710000Y-39290000D02*
X90410000Y-38590000D01*
X87210000Y-38390000D02*
X81110004Y-38390000D01*
X81110004Y-38390000D02*
X81110000Y-38389996D01*
D22*
%TO.N,Net-(D1-Pad2)*%
X111550000Y-32300000D02*
X113200000Y-30650000D01*
X111400000Y-32300000D02*
X111550000Y-32300000D01*
X111350000Y-32350000D02*
X111400000Y-32300000D01*
X111350000Y-33400000D02*
X111350000Y-32350000D01*
X117145000Y-36500000D02*
X115949894Y-36500000D01*
%TO.N,SCL*%
X92597500Y-36577500D02*
X92610000Y-36590000D01*
X90410000Y-36577500D02*
X92597500Y-36577500D01*
X92810000Y-34915021D02*
X93375685Y-34915021D01*
X93375685Y-34915021D02*
X97010000Y-34915021D01*
X97010000Y-30790006D02*
X97022657Y-30802663D01*
X97010000Y-29290000D02*
X97010000Y-30790006D01*
X92584979Y-34690000D02*
X92810000Y-34915021D01*
X82128232Y-34690000D02*
X92584979Y-34690000D01*
X71169999Y-33879999D02*
X81318231Y-33879999D01*
X81318231Y-33879999D02*
X82128232Y-34690000D01*
X70320000Y-33030000D02*
X71169999Y-33879999D01*
X70110000Y-33030000D02*
X70320000Y-33030000D01*
%TO.N,SDA*%
X72660000Y-35390000D02*
X87710000Y-35390000D01*
X72160000Y-34890000D02*
X72660000Y-35390000D01*
X87710000Y-35390000D02*
X88910000Y-35390000D01*
X88910000Y-35390000D02*
X89010000Y-35490000D01*
X96510000Y-29290000D02*
X96510000Y-30290000D01*
X96010000Y-29290000D02*
X96010000Y-30790000D01*
X96510000Y-30290000D02*
X96010000Y-30790000D01*
X95810000Y-32590001D02*
X92309998Y-32590001D01*
X92309998Y-32590001D02*
X92210000Y-32689999D01*
X88810000Y-35690000D02*
X89010000Y-35490000D01*
X88810000Y-36577500D02*
X88810000Y-35690000D01*
X72107680Y-30280000D02*
X72203857Y-30376177D01*
X70320000Y-30280000D02*
X72107680Y-30280000D01*
X70110000Y-30490000D02*
X70320000Y-30280000D01*
%TO.N,Net-(R3-Pad1)*%
X99910000Y-36590000D02*
X99810000Y-36490000D01*
X100910000Y-36590000D02*
X99910000Y-36590000D01*
X103010000Y-30590000D02*
X103010000Y-29290000D01*
%TO.N,RES#*%
X82810000Y-29090000D02*
X82710000Y-28990000D01*
X83810000Y-29090000D02*
X82810000Y-29090000D01*
X98819061Y-33690000D02*
X98869071Y-33740010D01*
X91493462Y-33690000D02*
X98819061Y-33690000D01*
X83710000Y-33390000D02*
X83760001Y-33440001D01*
X83760001Y-33440001D02*
X91243463Y-33440001D01*
X91243463Y-33440001D02*
X91493462Y-33690000D01*
X99010000Y-29290000D02*
X99009999Y-30165001D01*
X99009999Y-30165001D02*
X99009999Y-30640007D01*
%TO.N,Net-(C1-Pad1)*%
X116075000Y-30475000D02*
X115900000Y-30650000D01*
X115850000Y-30700000D02*
X115900000Y-30650000D01*
X117145000Y-37450000D02*
X118500000Y-37450000D01*
X115775000Y-30775000D02*
X115900000Y-30650000D01*
X115900000Y-31290000D02*
X115900000Y-30650000D01*
X120000000Y-35390000D02*
X115900000Y-31290000D01*
X120000000Y-36550000D02*
X120000000Y-35390000D01*
X119100000Y-37450000D02*
X120000000Y-36550000D01*
X118500000Y-37450000D02*
X119100000Y-37450000D01*
%TO.N,Net-(C2-Pad2)*%
X108200000Y-31000000D02*
X108200000Y-32000000D01*
X108200000Y-32000000D02*
X108200000Y-32600000D01*
X108200000Y-32000000D02*
X109850000Y-32000000D01*
X109900000Y-30950000D02*
X109900000Y-32099998D01*
X109900000Y-32099998D02*
X109900002Y-32100000D01*
X111600000Y-38400000D02*
X111550000Y-38350000D01*
X112705000Y-38400000D02*
X111600000Y-38400000D01*
X112705000Y-38400000D02*
X114655000Y-38400000D01*
%TD*%
M02*
