%TF.GenerationSoftware,KiCad,Pcbnew,(5.1.9)-1*%
%TF.CreationDate,2021-03-03T23:02:33-08:00*%
%TF.ProjectId,SSD1326_I2C_breakout,53534431-3332-4365-9f49-32435f627265,0.1b*%
%TF.SameCoordinates,Original*%
%TF.FileFunction,OtherDrawing,Comment*%
%FSLAX46Y46*%
G04 Gerber Fmt 4.6, Leading zero omitted, Abs format (unit mm)*
G04 Created by KiCad (PCBNEW (5.1.9)-1) date 2021-03-03 23:02:33*
%MOMM*%
%LPD*%
G01*
G04 APERTURE LIST*
%ADD10C,0.150000*%
%ADD11C,0.120000*%
G04 APERTURE END LIST*
D10*
X93035952Y-24652380D02*
X92559761Y-24652380D01*
X92512142Y-25128571D01*
X92559761Y-25080952D01*
X92655000Y-25033333D01*
X92893095Y-25033333D01*
X92988333Y-25080952D01*
X93035952Y-25128571D01*
X93083571Y-25223809D01*
X93083571Y-25461904D01*
X93035952Y-25557142D01*
X92988333Y-25604761D01*
X92893095Y-25652380D01*
X92655000Y-25652380D01*
X92559761Y-25604761D01*
X92512142Y-25557142D01*
X93988333Y-24652380D02*
X93512142Y-24652380D01*
X93464523Y-25128571D01*
X93512142Y-25080952D01*
X93607380Y-25033333D01*
X93845476Y-25033333D01*
X93940714Y-25080952D01*
X93988333Y-25128571D01*
X94035952Y-25223809D01*
X94035952Y-25461904D01*
X93988333Y-25557142D01*
X93940714Y-25604761D01*
X93845476Y-25652380D01*
X93607380Y-25652380D01*
X93512142Y-25604761D01*
X93464523Y-25557142D01*
X94464523Y-25557142D02*
X94512142Y-25604761D01*
X94464523Y-25652380D01*
X94416904Y-25604761D01*
X94464523Y-25557142D01*
X94464523Y-25652380D01*
X95369285Y-24652380D02*
X95178809Y-24652380D01*
X95083571Y-24700000D01*
X95035952Y-24747619D01*
X94940714Y-24890476D01*
X94893095Y-25080952D01*
X94893095Y-25461904D01*
X94940714Y-25557142D01*
X94988333Y-25604761D01*
X95083571Y-25652380D01*
X95274047Y-25652380D01*
X95369285Y-25604761D01*
X95416904Y-25557142D01*
X95464523Y-25461904D01*
X95464523Y-25223809D01*
X95416904Y-25128571D01*
X95369285Y-25080952D01*
X95274047Y-25033333D01*
X95083571Y-25033333D01*
X94988333Y-25080952D01*
X94940714Y-25128571D01*
X94893095Y-25223809D01*
X95940714Y-25652380D02*
X96131190Y-25652380D01*
X96226428Y-25604761D01*
X96274047Y-25557142D01*
X96369285Y-25414285D01*
X96416904Y-25223809D01*
X96416904Y-24842857D01*
X96369285Y-24747619D01*
X96321666Y-24700000D01*
X96226428Y-24652380D01*
X96035952Y-24652380D01*
X95940714Y-24700000D01*
X95893095Y-24747619D01*
X95845476Y-24842857D01*
X95845476Y-25080952D01*
X95893095Y-25176190D01*
X95940714Y-25223809D01*
X96035952Y-25271428D01*
X96226428Y-25271428D01*
X96321666Y-25223809D01*
X96369285Y-25176190D01*
X96416904Y-25080952D01*
X97035952Y-24652380D02*
X97131190Y-24652380D01*
X97226428Y-24700000D01*
X97274047Y-24747619D01*
X97321666Y-24842857D01*
X97369285Y-25033333D01*
X97369285Y-25271428D01*
X97321666Y-25461904D01*
X97274047Y-25557142D01*
X97226428Y-25604761D01*
X97131190Y-25652380D01*
X97035952Y-25652380D01*
X96940714Y-25604761D01*
X96893095Y-25557142D01*
X96845476Y-25461904D01*
X96797857Y-25271428D01*
X96797857Y-25033333D01*
X96845476Y-24842857D01*
X96893095Y-24747619D01*
X96940714Y-24700000D01*
X97035952Y-24652380D01*
X98559761Y-25652380D02*
X98559761Y-24985714D01*
X98559761Y-25080952D02*
X98607380Y-25033333D01*
X98702619Y-24985714D01*
X98845476Y-24985714D01*
X98940714Y-25033333D01*
X98988333Y-25128571D01*
X98988333Y-25652380D01*
X98988333Y-25128571D02*
X99035952Y-25033333D01*
X99131190Y-24985714D01*
X99274047Y-24985714D01*
X99369285Y-25033333D01*
X99416904Y-25128571D01*
X99416904Y-25652380D01*
X99893095Y-25652380D02*
X99893095Y-24985714D01*
X99893095Y-25080952D02*
X99940714Y-25033333D01*
X100035952Y-24985714D01*
X100178809Y-24985714D01*
X100274047Y-25033333D01*
X100321666Y-25128571D01*
X100321666Y-25652380D01*
X100321666Y-25128571D02*
X100369285Y-25033333D01*
X100464523Y-24985714D01*
X100607380Y-24985714D01*
X100702619Y-25033333D01*
X100750238Y-25128571D01*
X100750238Y-25652380D01*
X68810000Y-26500000D02*
X124500000Y-26500000D01*
X68810000Y-27690000D02*
X68810000Y-25913579D01*
X124500000Y-27690000D02*
X124500000Y-25913579D01*
X124500000Y-26500000D02*
X123373496Y-27086421D01*
X124500000Y-26500000D02*
X123373496Y-25913579D01*
X68810000Y-26500000D02*
X69936504Y-27086421D01*
X68810000Y-26500000D02*
X69936504Y-25913579D01*
X61847619Y-30518571D02*
X61847619Y-29947142D01*
X61847619Y-30232857D02*
X62847619Y-30232857D01*
X62704761Y-30137619D01*
X62609523Y-30042380D01*
X62561904Y-29947142D01*
X62752380Y-30899523D02*
X62800000Y-30947142D01*
X62847619Y-31042380D01*
X62847619Y-31280476D01*
X62800000Y-31375714D01*
X62752380Y-31423333D01*
X62657142Y-31470952D01*
X62561904Y-31470952D01*
X62419047Y-31423333D01*
X61847619Y-30851904D01*
X61847619Y-31470952D01*
X61942857Y-31899523D02*
X61895238Y-31947142D01*
X61847619Y-31899523D01*
X61895238Y-31851904D01*
X61942857Y-31899523D01*
X61847619Y-31899523D01*
X62419047Y-32518571D02*
X62466666Y-32423333D01*
X62514285Y-32375714D01*
X62609523Y-32328095D01*
X62657142Y-32328095D01*
X62752380Y-32375714D01*
X62800000Y-32423333D01*
X62847619Y-32518571D01*
X62847619Y-32709047D01*
X62800000Y-32804285D01*
X62752380Y-32851904D01*
X62657142Y-32899523D01*
X62609523Y-32899523D01*
X62514285Y-32851904D01*
X62466666Y-32804285D01*
X62419047Y-32709047D01*
X62419047Y-32518571D01*
X62371428Y-32423333D01*
X62323809Y-32375714D01*
X62228571Y-32328095D01*
X62038095Y-32328095D01*
X61942857Y-32375714D01*
X61895238Y-32423333D01*
X61847619Y-32518571D01*
X61847619Y-32709047D01*
X61895238Y-32804285D01*
X61942857Y-32851904D01*
X62038095Y-32899523D01*
X62228571Y-32899523D01*
X62323809Y-32851904D01*
X62371428Y-32804285D01*
X62419047Y-32709047D01*
X62847619Y-33518571D02*
X62847619Y-33613809D01*
X62800000Y-33709047D01*
X62752380Y-33756666D01*
X62657142Y-33804285D01*
X62466666Y-33851904D01*
X62228571Y-33851904D01*
X62038095Y-33804285D01*
X61942857Y-33756666D01*
X61895238Y-33709047D01*
X61847619Y-33613809D01*
X61847619Y-33518571D01*
X61895238Y-33423333D01*
X61942857Y-33375714D01*
X62038095Y-33328095D01*
X62228571Y-33280476D01*
X62466666Y-33280476D01*
X62657142Y-33328095D01*
X62752380Y-33375714D01*
X62800000Y-33423333D01*
X62847619Y-33518571D01*
X62847619Y-34470952D02*
X62847619Y-34566190D01*
X62800000Y-34661428D01*
X62752380Y-34709047D01*
X62657142Y-34756666D01*
X62466666Y-34804285D01*
X62228571Y-34804285D01*
X62038095Y-34756666D01*
X61942857Y-34709047D01*
X61895238Y-34661428D01*
X61847619Y-34566190D01*
X61847619Y-34470952D01*
X61895238Y-34375714D01*
X61942857Y-34328095D01*
X62038095Y-34280476D01*
X62228571Y-34232857D01*
X62466666Y-34232857D01*
X62657142Y-34280476D01*
X62752380Y-34328095D01*
X62800000Y-34375714D01*
X62847619Y-34470952D01*
X61847619Y-35994761D02*
X62514285Y-35994761D01*
X62419047Y-35994761D02*
X62466666Y-36042380D01*
X62514285Y-36137619D01*
X62514285Y-36280476D01*
X62466666Y-36375714D01*
X62371428Y-36423333D01*
X61847619Y-36423333D01*
X62371428Y-36423333D02*
X62466666Y-36470952D01*
X62514285Y-36566190D01*
X62514285Y-36709047D01*
X62466666Y-36804285D01*
X62371428Y-36851904D01*
X61847619Y-36851904D01*
X61847619Y-37328095D02*
X62514285Y-37328095D01*
X62419047Y-37328095D02*
X62466666Y-37375714D01*
X62514285Y-37470952D01*
X62514285Y-37613809D01*
X62466666Y-37709047D01*
X62371428Y-37756666D01*
X61847619Y-37756666D01*
X62371428Y-37756666D02*
X62466666Y-37804285D01*
X62514285Y-37899523D01*
X62514285Y-38042380D01*
X62466666Y-38137619D01*
X62371428Y-38185238D01*
X61847619Y-38185238D01*
X63600000Y-27690000D02*
X63600000Y-40490000D01*
X68810000Y-27690000D02*
X63013579Y-27690000D01*
X68810000Y-40490000D02*
X63013579Y-40490000D01*
X63600000Y-40490000D02*
X63013579Y-39363496D01*
X63600000Y-40490000D02*
X64186421Y-39363496D01*
X63600000Y-27690000D02*
X63013579Y-28816504D01*
X63600000Y-27690000D02*
X64186421Y-28816504D01*
D11*
%TO.C,D1*%
X110800000Y-29725000D02*
X112000000Y-29725000D01*
X111400000Y-29725000D02*
X110800000Y-30725000D01*
X110800000Y-30725000D02*
X112000000Y-30725000D01*
X112000000Y-30725000D02*
X111400000Y-29725000D01*
X111400000Y-29725000D02*
X111400000Y-30725000D01*
X111400000Y-30725000D02*
X111400000Y-31725000D01*
%TO.C,L1*%
X113550000Y-32650000D02*
X112550000Y-32650000D01*
X112550000Y-32650000D02*
X112550000Y-31650000D01*
X112550000Y-29650000D02*
X112550000Y-28650000D01*
X112550000Y-28650000D02*
X113550000Y-28650000D01*
X115550000Y-28650000D02*
X116550000Y-28650000D01*
X116550000Y-28650000D02*
X116550000Y-29650000D01*
X116550000Y-31650000D02*
X116550000Y-32650000D01*
X116550000Y-32650000D02*
X115550000Y-32650000D01*
%TD*%
M02*
