%TF.GenerationSoftware,KiCad,Pcbnew,(5.1.9)-1*%
%TF.CreationDate,2021-03-03T23:02:33-08:00*%
%TF.ProjectId,SSD1326_I2C_breakout,53534431-3332-4365-9f49-32435f627265,0.1b*%
%TF.SameCoordinates,Original*%
%TF.FileFunction,Copper,L1,Top*%
%TF.FilePolarity,Positive*%
%FSLAX46Y46*%
G04 Gerber Fmt 4.6, Leading zero omitted, Abs format (unit mm)*
G04 Created by KiCad (PCBNEW (5.1.9)-1) date 2021-03-03 23:02:33*
%MOMM*%
%LPD*%
G01*
G04 APERTURE LIST*
%TA.AperFunction,ComponentPad*%
%ADD10R,1.700000X1.700000*%
%TD*%
%TA.AperFunction,ComponentPad*%
%ADD11O,1.700000X1.700000*%
%TD*%
%TA.AperFunction,ComponentPad*%
%ADD12C,1.700000*%
%TD*%
%TA.AperFunction,ViaPad*%
%ADD13C,0.800000*%
%TD*%
%TA.AperFunction,Conductor*%
%ADD14C,0.300000*%
%TD*%
%TA.AperFunction,Conductor*%
%ADD15C,0.250000*%
%TD*%
G04 APERTURE END LIST*
D10*
%TO.P,J1,4*%
%TO.N,GND*%
X70110000Y-37900000D03*
D11*
%TO.P,J1,3*%
%TO.N,+5V*%
X70110000Y-35360000D03*
%TO.P,J1,2*%
%TO.N,SCL*%
X70110000Y-32820000D03*
D12*
%TO.P,J1,1*%
%TO.N,SDA*%
X70110000Y-30280000D03*
%TD*%
D13*
%TO.N,GND*%
X75310002Y-39489998D03*
X80010000Y-30790000D03*
X79510000Y-39490000D03*
X75310000Y-32590000D03*
X87410000Y-28690000D03*
X87410004Y-39610000D03*
X109310000Y-39590000D03*
X109300000Y-34800000D03*
X113150000Y-37500000D03*
X113100000Y-39600000D03*
%TO.N,+12V*%
X105610000Y-36490000D03*
X102610000Y-35490010D03*
X103809996Y-31890000D03*
X104810000Y-28340012D03*
X105710000Y-28340024D03*
X106900000Y-36600000D03*
X106889990Y-28346838D03*
%TO.N,+5V*%
X72510000Y-36690000D03*
X73010000Y-31290000D03*
X118550000Y-38350000D03*
X118550004Y-35500000D03*
%TO.N,Net-(C9-Pad1)*%
X93705614Y-36685614D03*
X93110000Y-30990000D03*
%TO.N,+3V3*%
X81110000Y-28990000D03*
X77110000Y-29790000D03*
X91710000Y-38190000D03*
X99610000Y-35390000D03*
X77910000Y-36390000D03*
X91710000Y-35689998D03*
X100509992Y-30590000D03*
X81110000Y-38389996D03*
%TO.N,Net-(D1-Pad2)*%
X111350000Y-33400000D03*
X115949894Y-36500000D03*
%TO.N,SCL*%
X92610000Y-36590000D03*
X92810000Y-34915021D03*
X97010000Y-34915021D03*
X97022657Y-30802663D03*
%TO.N,SDA*%
X72203857Y-30376177D03*
X72160000Y-34890000D03*
X89010000Y-35490000D03*
X95810000Y-32590001D03*
X96010000Y-30790000D03*
X92210000Y-32689999D03*
%TO.N,Net-(R3-Pad1)*%
X99810000Y-36490000D03*
X103010000Y-30590000D03*
%TO.N,RES#*%
X83810000Y-29090000D03*
X83710000Y-33390000D03*
X98869071Y-33740010D03*
X99009999Y-30640007D03*
%TO.N,Net-(C2-Pad2)*%
X109900002Y-32100000D03*
X111550000Y-38350000D03*
%TD*%
D14*
%TO.N,GND*%
X79510000Y-31290000D02*
X79510000Y-39490000D01*
X80010000Y-30790000D02*
X79510000Y-31290000D01*
X75310002Y-32590002D02*
X75310000Y-32590000D01*
X75310002Y-39489998D02*
X75310002Y-32590002D01*
X87410000Y-28690000D02*
X87410000Y-39609996D01*
X87410000Y-39609996D02*
X87410004Y-39610000D01*
X109300000Y-39580000D02*
X109310000Y-39590000D01*
X109300000Y-34800000D02*
X109300000Y-39580000D01*
X113150000Y-37500000D02*
X113150000Y-39550000D01*
X113150000Y-39550000D02*
X113100000Y-39600000D01*
%TO.N,+12V*%
X103809996Y-34290014D02*
X103809996Y-31890000D01*
X102610000Y-35490010D02*
X103809996Y-34290014D01*
X104810000Y-30889996D02*
X104810000Y-28340012D01*
X103809996Y-31890000D02*
X104810000Y-30889996D01*
X105710000Y-36390000D02*
X105710000Y-28340024D01*
X105610000Y-36490000D02*
X105710000Y-36390000D01*
X106900000Y-28356848D02*
X106889990Y-28346838D01*
X106900000Y-36600000D02*
X106900000Y-28356848D01*
%TO.N,+5V*%
X72910000Y-31390000D02*
X73010000Y-31290000D01*
X72910000Y-36290000D02*
X72910000Y-31390000D01*
X72510000Y-36690000D02*
X72910000Y-36290000D01*
X118550000Y-38350000D02*
X118550000Y-35500004D01*
X118550000Y-35500004D02*
X118550004Y-35500000D01*
D15*
%TO.N,Net-(C9-Pad1)*%
X93710000Y-31590000D02*
X93110000Y-30990000D01*
X93710000Y-36681228D02*
X93710000Y-31590000D01*
X93705614Y-36685614D02*
X93710000Y-36681228D01*
D14*
%TO.N,+3V3*%
X77110000Y-29790000D02*
X77110000Y-31990000D01*
X77110000Y-35590000D02*
X77910000Y-36390000D01*
X77110000Y-31990000D02*
X77110000Y-35590000D01*
X91710000Y-38190000D02*
X91710000Y-35689998D01*
X99610000Y-35390000D02*
X100509992Y-34490008D01*
X100509992Y-34490008D02*
X100509992Y-30590000D01*
X81110000Y-28990000D02*
X81110000Y-38389996D01*
D15*
%TO.N,Net-(D1-Pad2)*%
X111350000Y-33400000D02*
X112849894Y-33400000D01*
X112849894Y-33400000D02*
X115949894Y-36500000D01*
%TO.N,SCL*%
X97010000Y-34915021D02*
X97010000Y-30815320D01*
X97010000Y-30815320D02*
X97022657Y-30802663D01*
X92810000Y-36390000D02*
X92810000Y-34915021D01*
X92610000Y-36590000D02*
X92810000Y-36390000D01*
%TO.N,SDA*%
X72203857Y-34846143D02*
X72160000Y-34890000D01*
X72203857Y-30376177D02*
X72203857Y-34846143D01*
X96010000Y-32390001D02*
X96010000Y-30790000D01*
X95810000Y-32590001D02*
X96010000Y-32390001D01*
X91810001Y-32689999D02*
X92210000Y-32689999D01*
X89010000Y-35490000D02*
X91810001Y-32689999D01*
%TO.N,Net-(R3-Pad1)*%
X99810000Y-36490000D02*
X102984998Y-33315002D01*
X102984998Y-30615002D02*
X103010000Y-30590000D01*
X102984998Y-33315002D02*
X102984998Y-30615002D01*
%TO.N,RES#*%
X83810000Y-29090000D02*
X83810000Y-33290000D01*
X83810000Y-33290000D02*
X83710000Y-33390000D01*
X98869071Y-33740010D02*
X98869071Y-30780935D01*
X98869071Y-30780935D02*
X99009999Y-30640007D01*
%TO.N,Net-(C2-Pad2)*%
X110015685Y-32100000D02*
X109900002Y-32100000D01*
X110150000Y-36950000D02*
X110150000Y-32349998D01*
X110150000Y-32349998D02*
X109900002Y-32100000D01*
X111550000Y-38350000D02*
X110150000Y-36950000D01*
%TD*%
M02*
