%TF.GenerationSoftware,KiCad,Pcbnew,(5.1.9)-1*%
%TF.CreationDate,2021-03-03T23:02:33-08:00*%
%TF.ProjectId,SSD1326_I2C_breakout,53534431-3332-4365-9f49-32435f627265,0.1b*%
%TF.SameCoordinates,Original*%
%TF.FileFunction,Legend,Bot*%
%TF.FilePolarity,Positive*%
%FSLAX46Y46*%
G04 Gerber Fmt 4.6, Leading zero omitted, Abs format (unit mm)*
G04 Created by KiCad (PCBNEW (5.1.9)-1) date 2021-03-03 23:02:33*
%MOMM*%
%LPD*%
G01*
G04 APERTURE LIST*
%ADD10C,0.200000*%
%ADD11C,0.127000*%
%ADD12C,0.120000*%
%ADD13C,0.015000*%
%ADD14C,0.150000*%
G04 APERTURE END LIST*
D10*
%TO.C,U5*%
X113500000Y-38450000D02*
G75*
G03*
X113500000Y-38450000I-100000J0D01*
G01*
D11*
X115020000Y-35880000D02*
X116780000Y-35880000D01*
X115020000Y-39020000D02*
X116780000Y-39020000D01*
D12*
%TO.C,R5*%
X108722500Y-33432776D02*
X108722500Y-33942224D01*
X107677500Y-33432776D02*
X107677500Y-33942224D01*
%TO.C,R4*%
X108722500Y-29832776D02*
X108722500Y-30342224D01*
X107677500Y-29832776D02*
X107677500Y-30342224D01*
%TO.C,C13*%
X77220000Y-37343733D02*
X77220000Y-37636267D01*
X76200000Y-37343733D02*
X76200000Y-37636267D01*
%TO.C,U4*%
X76820000Y-29190000D02*
X76820000Y-31640000D01*
X73600000Y-30990000D02*
X73600000Y-29190000D01*
D10*
%TO.C,U3*%
X81780000Y-30820000D02*
G75*
G03*
X81780000Y-30820000I-100000J0D01*
G01*
D11*
X84430000Y-28365000D02*
X84430000Y-29280000D01*
X84430000Y-31445000D02*
X84430000Y-30530000D01*
X83130000Y-28365000D02*
X84430000Y-28365000D01*
X83130000Y-31445000D02*
X84430000Y-31445000D01*
D12*
%TO.C,R3*%
X101432500Y-37247776D02*
X101432500Y-37757224D01*
X100387500Y-37247776D02*
X100387500Y-37757224D01*
%TO.C,R2*%
X89332500Y-37235276D02*
X89332500Y-37744724D01*
X88287500Y-37235276D02*
X88287500Y-37744724D01*
%TO.C,R1*%
X90932500Y-37235276D02*
X90932500Y-37744724D01*
X89887500Y-37235276D02*
X89887500Y-37744724D01*
%TO.C,C12*%
X74720000Y-37343733D02*
X74720000Y-37636267D01*
X73700000Y-37343733D02*
X73700000Y-37636267D01*
%TO.C,C11*%
X96920000Y-37343733D02*
X96920000Y-37636267D01*
X95900000Y-37343733D02*
X95900000Y-37636267D01*
%TO.C,C10*%
X98720000Y-37343733D02*
X98720000Y-37636267D01*
X97700000Y-37343733D02*
X97700000Y-37636267D01*
%TO.C,C9*%
X95220000Y-37343733D02*
X95220000Y-37636267D01*
X94200000Y-37343733D02*
X94200000Y-37636267D01*
%TO.C,C8*%
X103120000Y-37343733D02*
X103120000Y-37636267D01*
X102100000Y-37343733D02*
X102100000Y-37636267D01*
%TO.C,C7*%
X104820000Y-37343733D02*
X104820000Y-37636267D01*
X103800000Y-37343733D02*
X103800000Y-37636267D01*
%TO.C,C5*%
X110960000Y-37343733D02*
X110960000Y-37636267D01*
X109940000Y-37343733D02*
X109940000Y-37636267D01*
%TO.C,C3*%
X108620000Y-37343733D02*
X108620000Y-37636267D01*
X107600000Y-37343733D02*
X107600000Y-37636267D01*
%TO.C,C2*%
X110410000Y-29941233D02*
X110410000Y-30233767D01*
X109390000Y-29941233D02*
X109390000Y-30233767D01*
%TO.C,C1*%
X120460000Y-37343733D02*
X120460000Y-37636267D01*
X119440000Y-37343733D02*
X119440000Y-37636267D01*
%TO.C,U5*%
D13*
X116419619Y-39305923D02*
X116419619Y-39824019D01*
X116389142Y-39884971D01*
X116358666Y-39915447D01*
X116297714Y-39945923D01*
X116175809Y-39945923D01*
X116114857Y-39915447D01*
X116084380Y-39884971D01*
X116053904Y-39824019D01*
X116053904Y-39305923D01*
X115444380Y-39305923D02*
X115749142Y-39305923D01*
X115779619Y-39610685D01*
X115749142Y-39580209D01*
X115688190Y-39549733D01*
X115535809Y-39549733D01*
X115474857Y-39580209D01*
X115444380Y-39610685D01*
X115413904Y-39671638D01*
X115413904Y-39824019D01*
X115444380Y-39884971D01*
X115474857Y-39915447D01*
X115535809Y-39945923D01*
X115688190Y-39945923D01*
X115749142Y-39915447D01*
X115779619Y-39884971D01*
%TO.C,R5*%
D14*
X107222380Y-33520833D02*
X106746190Y-33187500D01*
X107222380Y-32949404D02*
X106222380Y-32949404D01*
X106222380Y-33330357D01*
X106270000Y-33425595D01*
X106317619Y-33473214D01*
X106412857Y-33520833D01*
X106555714Y-33520833D01*
X106650952Y-33473214D01*
X106698571Y-33425595D01*
X106746190Y-33330357D01*
X106746190Y-32949404D01*
X106222380Y-34425595D02*
X106222380Y-33949404D01*
X106698571Y-33901785D01*
X106650952Y-33949404D01*
X106603333Y-34044642D01*
X106603333Y-34282738D01*
X106650952Y-34377976D01*
X106698571Y-34425595D01*
X106793809Y-34473214D01*
X107031904Y-34473214D01*
X107127142Y-34425595D01*
X107174761Y-34377976D01*
X107222380Y-34282738D01*
X107222380Y-34044642D01*
X107174761Y-33949404D01*
X107127142Y-33901785D01*
%TO.C,R4*%
X107222380Y-29920833D02*
X106746190Y-29587500D01*
X107222380Y-29349404D02*
X106222380Y-29349404D01*
X106222380Y-29730357D01*
X106270000Y-29825595D01*
X106317619Y-29873214D01*
X106412857Y-29920833D01*
X106555714Y-29920833D01*
X106650952Y-29873214D01*
X106698571Y-29825595D01*
X106746190Y-29730357D01*
X106746190Y-29349404D01*
X106555714Y-30777976D02*
X107222380Y-30777976D01*
X106174761Y-30539880D02*
X106889047Y-30301785D01*
X106889047Y-30920833D01*
%TO.C,D1*%
X114952380Y-30086904D02*
X113952380Y-30086904D01*
X113952380Y-30325000D01*
X114000000Y-30467857D01*
X114095238Y-30563095D01*
X114190476Y-30610714D01*
X114380952Y-30658333D01*
X114523809Y-30658333D01*
X114714285Y-30610714D01*
X114809523Y-30563095D01*
X114904761Y-30467857D01*
X114952380Y-30325000D01*
X114952380Y-30086904D01*
X114952380Y-31610714D02*
X114952380Y-31039285D01*
X114952380Y-31325000D02*
X113952380Y-31325000D01*
X114095238Y-31229761D01*
X114190476Y-31134523D01*
X114238095Y-31039285D01*
%TO.C,C13*%
X75637142Y-36847142D02*
X75684761Y-36799523D01*
X75732380Y-36656666D01*
X75732380Y-36561428D01*
X75684761Y-36418571D01*
X75589523Y-36323333D01*
X75494285Y-36275714D01*
X75303809Y-36228095D01*
X75160952Y-36228095D01*
X74970476Y-36275714D01*
X74875238Y-36323333D01*
X74780000Y-36418571D01*
X74732380Y-36561428D01*
X74732380Y-36656666D01*
X74780000Y-36799523D01*
X74827619Y-36847142D01*
X75732380Y-37799523D02*
X75732380Y-37228095D01*
X75732380Y-37513809D02*
X74732380Y-37513809D01*
X74875238Y-37418571D01*
X74970476Y-37323333D01*
X75018095Y-37228095D01*
X74732380Y-38132857D02*
X74732380Y-38751904D01*
X75113333Y-38418571D01*
X75113333Y-38561428D01*
X75160952Y-38656666D01*
X75208571Y-38704285D01*
X75303809Y-38751904D01*
X75541904Y-38751904D01*
X75637142Y-38704285D01*
X75684761Y-38656666D01*
X75732380Y-38561428D01*
X75732380Y-38275714D01*
X75684761Y-38180476D01*
X75637142Y-38132857D01*
%TO.C,U4*%
X77562380Y-29328095D02*
X78371904Y-29328095D01*
X78467142Y-29375714D01*
X78514761Y-29423333D01*
X78562380Y-29518571D01*
X78562380Y-29709047D01*
X78514761Y-29804285D01*
X78467142Y-29851904D01*
X78371904Y-29899523D01*
X77562380Y-29899523D01*
X77895714Y-30804285D02*
X78562380Y-30804285D01*
X77514761Y-30566190D02*
X78229047Y-30328095D01*
X78229047Y-30947142D01*
%TO.C,U3*%
D13*
X84799619Y-31960923D02*
X84799619Y-32479019D01*
X84769142Y-32539971D01*
X84738666Y-32570447D01*
X84677714Y-32600923D01*
X84555809Y-32600923D01*
X84494857Y-32570447D01*
X84464380Y-32539971D01*
X84433904Y-32479019D01*
X84433904Y-31960923D01*
X84190095Y-31960923D02*
X83793904Y-31960923D01*
X84007238Y-32204733D01*
X83915809Y-32204733D01*
X83854857Y-32235209D01*
X83824380Y-32265685D01*
X83793904Y-32326638D01*
X83793904Y-32479019D01*
X83824380Y-32539971D01*
X83854857Y-32570447D01*
X83915809Y-32600923D01*
X84098666Y-32600923D01*
X84159619Y-32570447D01*
X84190095Y-32539971D01*
%TO.C,R3*%
D14*
X99932380Y-37335833D02*
X99456190Y-37002500D01*
X99932380Y-36764404D02*
X98932380Y-36764404D01*
X98932380Y-37145357D01*
X98980000Y-37240595D01*
X99027619Y-37288214D01*
X99122857Y-37335833D01*
X99265714Y-37335833D01*
X99360952Y-37288214D01*
X99408571Y-37240595D01*
X99456190Y-37145357D01*
X99456190Y-36764404D01*
X98932380Y-37669166D02*
X98932380Y-38288214D01*
X99313333Y-37954880D01*
X99313333Y-38097738D01*
X99360952Y-38192976D01*
X99408571Y-38240595D01*
X99503809Y-38288214D01*
X99741904Y-38288214D01*
X99837142Y-38240595D01*
X99884761Y-38192976D01*
X99932380Y-38097738D01*
X99932380Y-37812023D01*
X99884761Y-37716785D01*
X99837142Y-37669166D01*
%TO.C,R2*%
X87832380Y-37323333D02*
X87356190Y-36990000D01*
X87832380Y-36751904D02*
X86832380Y-36751904D01*
X86832380Y-37132857D01*
X86880000Y-37228095D01*
X86927619Y-37275714D01*
X87022857Y-37323333D01*
X87165714Y-37323333D01*
X87260952Y-37275714D01*
X87308571Y-37228095D01*
X87356190Y-37132857D01*
X87356190Y-36751904D01*
X86927619Y-37704285D02*
X86880000Y-37751904D01*
X86832380Y-37847142D01*
X86832380Y-38085238D01*
X86880000Y-38180476D01*
X86927619Y-38228095D01*
X87022857Y-38275714D01*
X87118095Y-38275714D01*
X87260952Y-38228095D01*
X87832380Y-37656666D01*
X87832380Y-38275714D01*
%TO.C,R1*%
X89432380Y-37323333D02*
X88956190Y-36990000D01*
X89432380Y-36751904D02*
X88432380Y-36751904D01*
X88432380Y-37132857D01*
X88480000Y-37228095D01*
X88527619Y-37275714D01*
X88622857Y-37323333D01*
X88765714Y-37323333D01*
X88860952Y-37275714D01*
X88908571Y-37228095D01*
X88956190Y-37132857D01*
X88956190Y-36751904D01*
X89432380Y-38275714D02*
X89432380Y-37704285D01*
X89432380Y-37990000D02*
X88432380Y-37990000D01*
X88575238Y-37894761D01*
X88670476Y-37799523D01*
X88718095Y-37704285D01*
%TO.C,L1*%
X114716666Y-31602380D02*
X115192857Y-31602380D01*
X115192857Y-30602380D01*
X113859523Y-31602380D02*
X114430952Y-31602380D01*
X114145238Y-31602380D02*
X114145238Y-30602380D01*
X114240476Y-30745238D01*
X114335714Y-30840476D01*
X114430952Y-30888095D01*
%TO.C,C12*%
X73137142Y-36847142D02*
X73184761Y-36799523D01*
X73232380Y-36656666D01*
X73232380Y-36561428D01*
X73184761Y-36418571D01*
X73089523Y-36323333D01*
X72994285Y-36275714D01*
X72803809Y-36228095D01*
X72660952Y-36228095D01*
X72470476Y-36275714D01*
X72375238Y-36323333D01*
X72280000Y-36418571D01*
X72232380Y-36561428D01*
X72232380Y-36656666D01*
X72280000Y-36799523D01*
X72327619Y-36847142D01*
X73232380Y-37799523D02*
X73232380Y-37228095D01*
X73232380Y-37513809D02*
X72232380Y-37513809D01*
X72375238Y-37418571D01*
X72470476Y-37323333D01*
X72518095Y-37228095D01*
X72327619Y-38180476D02*
X72280000Y-38228095D01*
X72232380Y-38323333D01*
X72232380Y-38561428D01*
X72280000Y-38656666D01*
X72327619Y-38704285D01*
X72422857Y-38751904D01*
X72518095Y-38751904D01*
X72660952Y-38704285D01*
X73232380Y-38132857D01*
X73232380Y-38751904D01*
%TO.C,C11*%
X95337142Y-36847142D02*
X95384761Y-36799523D01*
X95432380Y-36656666D01*
X95432380Y-36561428D01*
X95384761Y-36418571D01*
X95289523Y-36323333D01*
X95194285Y-36275714D01*
X95003809Y-36228095D01*
X94860952Y-36228095D01*
X94670476Y-36275714D01*
X94575238Y-36323333D01*
X94480000Y-36418571D01*
X94432380Y-36561428D01*
X94432380Y-36656666D01*
X94480000Y-36799523D01*
X94527619Y-36847142D01*
X95432380Y-37799523D02*
X95432380Y-37228095D01*
X95432380Y-37513809D02*
X94432380Y-37513809D01*
X94575238Y-37418571D01*
X94670476Y-37323333D01*
X94718095Y-37228095D01*
X95432380Y-38751904D02*
X95432380Y-38180476D01*
X95432380Y-38466190D02*
X94432380Y-38466190D01*
X94575238Y-38370952D01*
X94670476Y-38275714D01*
X94718095Y-38180476D01*
%TO.C,C10*%
X97137142Y-36847142D02*
X97184761Y-36799523D01*
X97232380Y-36656666D01*
X97232380Y-36561428D01*
X97184761Y-36418571D01*
X97089523Y-36323333D01*
X96994285Y-36275714D01*
X96803809Y-36228095D01*
X96660952Y-36228095D01*
X96470476Y-36275714D01*
X96375238Y-36323333D01*
X96280000Y-36418571D01*
X96232380Y-36561428D01*
X96232380Y-36656666D01*
X96280000Y-36799523D01*
X96327619Y-36847142D01*
X97232380Y-37799523D02*
X97232380Y-37228095D01*
X97232380Y-37513809D02*
X96232380Y-37513809D01*
X96375238Y-37418571D01*
X96470476Y-37323333D01*
X96518095Y-37228095D01*
X96232380Y-38418571D02*
X96232380Y-38513809D01*
X96280000Y-38609047D01*
X96327619Y-38656666D01*
X96422857Y-38704285D01*
X96613333Y-38751904D01*
X96851428Y-38751904D01*
X97041904Y-38704285D01*
X97137142Y-38656666D01*
X97184761Y-38609047D01*
X97232380Y-38513809D01*
X97232380Y-38418571D01*
X97184761Y-38323333D01*
X97137142Y-38275714D01*
X97041904Y-38228095D01*
X96851428Y-38180476D01*
X96613333Y-38180476D01*
X96422857Y-38228095D01*
X96327619Y-38275714D01*
X96280000Y-38323333D01*
X96232380Y-38418571D01*
%TO.C,C9*%
X93637142Y-37323333D02*
X93684761Y-37275714D01*
X93732380Y-37132857D01*
X93732380Y-37037619D01*
X93684761Y-36894761D01*
X93589523Y-36799523D01*
X93494285Y-36751904D01*
X93303809Y-36704285D01*
X93160952Y-36704285D01*
X92970476Y-36751904D01*
X92875238Y-36799523D01*
X92780000Y-36894761D01*
X92732380Y-37037619D01*
X92732380Y-37132857D01*
X92780000Y-37275714D01*
X92827619Y-37323333D01*
X93732380Y-37799523D02*
X93732380Y-37990000D01*
X93684761Y-38085238D01*
X93637142Y-38132857D01*
X93494285Y-38228095D01*
X93303809Y-38275714D01*
X92922857Y-38275714D01*
X92827619Y-38228095D01*
X92780000Y-38180476D01*
X92732380Y-38085238D01*
X92732380Y-37894761D01*
X92780000Y-37799523D01*
X92827619Y-37751904D01*
X92922857Y-37704285D01*
X93160952Y-37704285D01*
X93256190Y-37751904D01*
X93303809Y-37799523D01*
X93351428Y-37894761D01*
X93351428Y-38085238D01*
X93303809Y-38180476D01*
X93256190Y-38228095D01*
X93160952Y-38275714D01*
%TO.C,C8*%
X101537142Y-37323333D02*
X101584761Y-37275714D01*
X101632380Y-37132857D01*
X101632380Y-37037619D01*
X101584761Y-36894761D01*
X101489523Y-36799523D01*
X101394285Y-36751904D01*
X101203809Y-36704285D01*
X101060952Y-36704285D01*
X100870476Y-36751904D01*
X100775238Y-36799523D01*
X100680000Y-36894761D01*
X100632380Y-37037619D01*
X100632380Y-37132857D01*
X100680000Y-37275714D01*
X100727619Y-37323333D01*
X101060952Y-37894761D02*
X101013333Y-37799523D01*
X100965714Y-37751904D01*
X100870476Y-37704285D01*
X100822857Y-37704285D01*
X100727619Y-37751904D01*
X100680000Y-37799523D01*
X100632380Y-37894761D01*
X100632380Y-38085238D01*
X100680000Y-38180476D01*
X100727619Y-38228095D01*
X100822857Y-38275714D01*
X100870476Y-38275714D01*
X100965714Y-38228095D01*
X101013333Y-38180476D01*
X101060952Y-38085238D01*
X101060952Y-37894761D01*
X101108571Y-37799523D01*
X101156190Y-37751904D01*
X101251428Y-37704285D01*
X101441904Y-37704285D01*
X101537142Y-37751904D01*
X101584761Y-37799523D01*
X101632380Y-37894761D01*
X101632380Y-38085238D01*
X101584761Y-38180476D01*
X101537142Y-38228095D01*
X101441904Y-38275714D01*
X101251428Y-38275714D01*
X101156190Y-38228095D01*
X101108571Y-38180476D01*
X101060952Y-38085238D01*
%TO.C,C7*%
X103237142Y-37323333D02*
X103284761Y-37275714D01*
X103332380Y-37132857D01*
X103332380Y-37037619D01*
X103284761Y-36894761D01*
X103189523Y-36799523D01*
X103094285Y-36751904D01*
X102903809Y-36704285D01*
X102760952Y-36704285D01*
X102570476Y-36751904D01*
X102475238Y-36799523D01*
X102380000Y-36894761D01*
X102332380Y-37037619D01*
X102332380Y-37132857D01*
X102380000Y-37275714D01*
X102427619Y-37323333D01*
X102332380Y-37656666D02*
X102332380Y-38323333D01*
X103332380Y-37894761D01*
%TO.C,C5*%
X109377142Y-37323333D02*
X109424761Y-37275714D01*
X109472380Y-37132857D01*
X109472380Y-37037619D01*
X109424761Y-36894761D01*
X109329523Y-36799523D01*
X109234285Y-36751904D01*
X109043809Y-36704285D01*
X108900952Y-36704285D01*
X108710476Y-36751904D01*
X108615238Y-36799523D01*
X108520000Y-36894761D01*
X108472380Y-37037619D01*
X108472380Y-37132857D01*
X108520000Y-37275714D01*
X108567619Y-37323333D01*
X108472380Y-38228095D02*
X108472380Y-37751904D01*
X108948571Y-37704285D01*
X108900952Y-37751904D01*
X108853333Y-37847142D01*
X108853333Y-38085238D01*
X108900952Y-38180476D01*
X108948571Y-38228095D01*
X109043809Y-38275714D01*
X109281904Y-38275714D01*
X109377142Y-38228095D01*
X109424761Y-38180476D01*
X109472380Y-38085238D01*
X109472380Y-37847142D01*
X109424761Y-37751904D01*
X109377142Y-37704285D01*
%TO.C,C3*%
X107037142Y-37323333D02*
X107084761Y-37275714D01*
X107132380Y-37132857D01*
X107132380Y-37037619D01*
X107084761Y-36894761D01*
X106989523Y-36799523D01*
X106894285Y-36751904D01*
X106703809Y-36704285D01*
X106560952Y-36704285D01*
X106370476Y-36751904D01*
X106275238Y-36799523D01*
X106180000Y-36894761D01*
X106132380Y-37037619D01*
X106132380Y-37132857D01*
X106180000Y-37275714D01*
X106227619Y-37323333D01*
X106132380Y-37656666D02*
X106132380Y-38275714D01*
X106513333Y-37942380D01*
X106513333Y-38085238D01*
X106560952Y-38180476D01*
X106608571Y-38228095D01*
X106703809Y-38275714D01*
X106941904Y-38275714D01*
X107037142Y-38228095D01*
X107084761Y-38180476D01*
X107132380Y-38085238D01*
X107132380Y-37799523D01*
X107084761Y-37704285D01*
X107037142Y-37656666D01*
%TO.C,C2*%
X108827142Y-29920833D02*
X108874761Y-29873214D01*
X108922380Y-29730357D01*
X108922380Y-29635119D01*
X108874761Y-29492261D01*
X108779523Y-29397023D01*
X108684285Y-29349404D01*
X108493809Y-29301785D01*
X108350952Y-29301785D01*
X108160476Y-29349404D01*
X108065238Y-29397023D01*
X107970000Y-29492261D01*
X107922380Y-29635119D01*
X107922380Y-29730357D01*
X107970000Y-29873214D01*
X108017619Y-29920833D01*
X108017619Y-30301785D02*
X107970000Y-30349404D01*
X107922380Y-30444642D01*
X107922380Y-30682738D01*
X107970000Y-30777976D01*
X108017619Y-30825595D01*
X108112857Y-30873214D01*
X108208095Y-30873214D01*
X108350952Y-30825595D01*
X108922380Y-30254166D01*
X108922380Y-30873214D01*
%TO.C,C1*%
X118877142Y-37323333D02*
X118924761Y-37275714D01*
X118972380Y-37132857D01*
X118972380Y-37037619D01*
X118924761Y-36894761D01*
X118829523Y-36799523D01*
X118734285Y-36751904D01*
X118543809Y-36704285D01*
X118400952Y-36704285D01*
X118210476Y-36751904D01*
X118115238Y-36799523D01*
X118020000Y-36894761D01*
X117972380Y-37037619D01*
X117972380Y-37132857D01*
X118020000Y-37275714D01*
X118067619Y-37323333D01*
X118972380Y-38275714D02*
X118972380Y-37704285D01*
X118972380Y-37990000D02*
X117972380Y-37990000D01*
X118115238Y-37894761D01*
X118210476Y-37799523D01*
X118258095Y-37704285D01*
%TD*%
M02*
