%TF.GenerationSoftware,KiCad,Pcbnew,(5.1.9)-1*%
%TF.CreationDate,2021-03-03T23:02:33-08:00*%
%TF.ProjectId,SSD1326_I2C_breakout,53534431-3332-4365-9f49-32435f627265,0.1b*%
%TF.SameCoordinates,Original*%
%TF.FileFunction,Paste,Bot*%
%TF.FilePolarity,Positive*%
%FSLAX46Y46*%
G04 Gerber Fmt 4.6, Leading zero omitted, Abs format (unit mm)*
G04 Created by KiCad (PCBNEW (5.1.9)-1) date 2021-03-03 23:02:33*
%MOMM*%
%LPD*%
G01*
G04 APERTURE LIST*
%ADD10R,1.220000X0.600000*%
%ADD11R,0.950000X0.900000*%
%ADD12R,0.650000X1.060000*%
%ADD13R,1.090000X0.610000*%
%ADD14R,0.300000X1.250000*%
%ADD15R,2.000000X3.000000*%
%ADD16R,1.500000X4.200000*%
G04 APERTURE END LIST*
D10*
%TO.C,U5*%
X117145000Y-38400000D03*
X117145000Y-37450000D03*
X117145000Y-36500000D03*
X114655000Y-36500000D03*
X114655000Y-37450000D03*
X114655000Y-38400000D03*
%TD*%
%TO.C,R5*%
G36*
G01*
X107962500Y-34112500D02*
X108437500Y-34112500D01*
G75*
G02*
X108675000Y-34350000I0J-237500D01*
G01*
X108675000Y-34850000D01*
G75*
G02*
X108437500Y-35087500I-237500J0D01*
G01*
X107962500Y-35087500D01*
G75*
G02*
X107725000Y-34850000I0J237500D01*
G01*
X107725000Y-34350000D01*
G75*
G02*
X107962500Y-34112500I237500J0D01*
G01*
G37*
G36*
G01*
X107962500Y-32287500D02*
X108437500Y-32287500D01*
G75*
G02*
X108675000Y-32525000I0J-237500D01*
G01*
X108675000Y-33025000D01*
G75*
G02*
X108437500Y-33262500I-237500J0D01*
G01*
X107962500Y-33262500D01*
G75*
G02*
X107725000Y-33025000I0J237500D01*
G01*
X107725000Y-32525000D01*
G75*
G02*
X107962500Y-32287500I237500J0D01*
G01*
G37*
%TD*%
%TO.C,R4*%
G36*
G01*
X107962500Y-30512500D02*
X108437500Y-30512500D01*
G75*
G02*
X108675000Y-30750000I0J-237500D01*
G01*
X108675000Y-31250000D01*
G75*
G02*
X108437500Y-31487500I-237500J0D01*
G01*
X107962500Y-31487500D01*
G75*
G02*
X107725000Y-31250000I0J237500D01*
G01*
X107725000Y-30750000D01*
G75*
G02*
X107962500Y-30512500I237500J0D01*
G01*
G37*
G36*
G01*
X107962500Y-28687500D02*
X108437500Y-28687500D01*
G75*
G02*
X108675000Y-28925000I0J-237500D01*
G01*
X108675000Y-29425000D01*
G75*
G02*
X108437500Y-29662500I-237500J0D01*
G01*
X107962500Y-29662500D01*
G75*
G02*
X107725000Y-29425000I0J237500D01*
G01*
X107725000Y-28925000D01*
G75*
G02*
X107962500Y-28687500I237500J0D01*
G01*
G37*
%TD*%
D11*
%TO.C,D1*%
X111400000Y-32300000D03*
X111400000Y-29150000D03*
%TD*%
%TO.C,C13*%
G36*
G01*
X76472500Y-37815000D02*
X76947500Y-37815000D01*
G75*
G02*
X77185000Y-38052500I0J-237500D01*
G01*
X77185000Y-38652500D01*
G75*
G02*
X76947500Y-38890000I-237500J0D01*
G01*
X76472500Y-38890000D01*
G75*
G02*
X76235000Y-38652500I0J237500D01*
G01*
X76235000Y-38052500D01*
G75*
G02*
X76472500Y-37815000I237500J0D01*
G01*
G37*
G36*
G01*
X76472500Y-36090000D02*
X76947500Y-36090000D01*
G75*
G02*
X77185000Y-36327500I0J-237500D01*
G01*
X77185000Y-36927500D01*
G75*
G02*
X76947500Y-37165000I-237500J0D01*
G01*
X76472500Y-37165000D01*
G75*
G02*
X76235000Y-36927500I0J237500D01*
G01*
X76235000Y-36327500D01*
G75*
G02*
X76472500Y-36090000I237500J0D01*
G01*
G37*
%TD*%
D12*
%TO.C,U4*%
X76160000Y-28990000D03*
X74260000Y-28990000D03*
X74260000Y-31190000D03*
X75210000Y-31190000D03*
X76160000Y-31190000D03*
%TD*%
D13*
%TO.C,U3*%
X82710000Y-28990000D03*
X84850000Y-29905000D03*
X82710000Y-30820000D03*
%TD*%
D14*
%TO.C,U2*%
X103510000Y-29290000D03*
X104010000Y-29290000D03*
X102510000Y-29290000D03*
X103010000Y-29290000D03*
X101510000Y-29290000D03*
X102010000Y-29290000D03*
X100510000Y-29290000D03*
X101010000Y-29290000D03*
X99510000Y-29290000D03*
X100010000Y-29290000D03*
X98510000Y-29290000D03*
X99010000Y-29290000D03*
X97510000Y-29290000D03*
X98010000Y-29290000D03*
X96510000Y-29290000D03*
X97010000Y-29290000D03*
X95510000Y-29290000D03*
X96010000Y-29290000D03*
X94510000Y-29290000D03*
X95010000Y-29290000D03*
X93510000Y-29290000D03*
X94010000Y-29290000D03*
X92510000Y-29290000D03*
X93010000Y-29290000D03*
X91510000Y-29290000D03*
X92010000Y-29290000D03*
D15*
X89970000Y-31615000D03*
X105550000Y-31615000D03*
%TD*%
%TO.C,R3*%
G36*
G01*
X100672500Y-37927500D02*
X101147500Y-37927500D01*
G75*
G02*
X101385000Y-38165000I0J-237500D01*
G01*
X101385000Y-38665000D01*
G75*
G02*
X101147500Y-38902500I-237500J0D01*
G01*
X100672500Y-38902500D01*
G75*
G02*
X100435000Y-38665000I0J237500D01*
G01*
X100435000Y-38165000D01*
G75*
G02*
X100672500Y-37927500I237500J0D01*
G01*
G37*
G36*
G01*
X100672500Y-36102500D02*
X101147500Y-36102500D01*
G75*
G02*
X101385000Y-36340000I0J-237500D01*
G01*
X101385000Y-36840000D01*
G75*
G02*
X101147500Y-37077500I-237500J0D01*
G01*
X100672500Y-37077500D01*
G75*
G02*
X100435000Y-36840000I0J237500D01*
G01*
X100435000Y-36340000D01*
G75*
G02*
X100672500Y-36102500I237500J0D01*
G01*
G37*
%TD*%
%TO.C,R2*%
G36*
G01*
X88572500Y-37915000D02*
X89047500Y-37915000D01*
G75*
G02*
X89285000Y-38152500I0J-237500D01*
G01*
X89285000Y-38652500D01*
G75*
G02*
X89047500Y-38890000I-237500J0D01*
G01*
X88572500Y-38890000D01*
G75*
G02*
X88335000Y-38652500I0J237500D01*
G01*
X88335000Y-38152500D01*
G75*
G02*
X88572500Y-37915000I237500J0D01*
G01*
G37*
G36*
G01*
X88572500Y-36090000D02*
X89047500Y-36090000D01*
G75*
G02*
X89285000Y-36327500I0J-237500D01*
G01*
X89285000Y-36827500D01*
G75*
G02*
X89047500Y-37065000I-237500J0D01*
G01*
X88572500Y-37065000D01*
G75*
G02*
X88335000Y-36827500I0J237500D01*
G01*
X88335000Y-36327500D01*
G75*
G02*
X88572500Y-36090000I237500J0D01*
G01*
G37*
%TD*%
%TO.C,R1*%
G36*
G01*
X90172500Y-37915000D02*
X90647500Y-37915000D01*
G75*
G02*
X90885000Y-38152500I0J-237500D01*
G01*
X90885000Y-38652500D01*
G75*
G02*
X90647500Y-38890000I-237500J0D01*
G01*
X90172500Y-38890000D01*
G75*
G02*
X89935000Y-38652500I0J237500D01*
G01*
X89935000Y-38152500D01*
G75*
G02*
X90172500Y-37915000I237500J0D01*
G01*
G37*
G36*
G01*
X90172500Y-36090000D02*
X90647500Y-36090000D01*
G75*
G02*
X90885000Y-36327500I0J-237500D01*
G01*
X90885000Y-36827500D01*
G75*
G02*
X90647500Y-37065000I-237500J0D01*
G01*
X90172500Y-37065000D01*
G75*
G02*
X89935000Y-36827500I0J237500D01*
G01*
X89935000Y-36327500D01*
G75*
G02*
X90172500Y-36090000I237500J0D01*
G01*
G37*
%TD*%
D16*
%TO.C,L1*%
X115900000Y-30650000D03*
X113200000Y-30650000D03*
%TD*%
%TO.C,C12*%
G36*
G01*
X73972500Y-37815000D02*
X74447500Y-37815000D01*
G75*
G02*
X74685000Y-38052500I0J-237500D01*
G01*
X74685000Y-38652500D01*
G75*
G02*
X74447500Y-38890000I-237500J0D01*
G01*
X73972500Y-38890000D01*
G75*
G02*
X73735000Y-38652500I0J237500D01*
G01*
X73735000Y-38052500D01*
G75*
G02*
X73972500Y-37815000I237500J0D01*
G01*
G37*
G36*
G01*
X73972500Y-36090000D02*
X74447500Y-36090000D01*
G75*
G02*
X74685000Y-36327500I0J-237500D01*
G01*
X74685000Y-36927500D01*
G75*
G02*
X74447500Y-37165000I-237500J0D01*
G01*
X73972500Y-37165000D01*
G75*
G02*
X73735000Y-36927500I0J237500D01*
G01*
X73735000Y-36327500D01*
G75*
G02*
X73972500Y-36090000I237500J0D01*
G01*
G37*
%TD*%
%TO.C,C11*%
G36*
G01*
X96172500Y-37815000D02*
X96647500Y-37815000D01*
G75*
G02*
X96885000Y-38052500I0J-237500D01*
G01*
X96885000Y-38652500D01*
G75*
G02*
X96647500Y-38890000I-237500J0D01*
G01*
X96172500Y-38890000D01*
G75*
G02*
X95935000Y-38652500I0J237500D01*
G01*
X95935000Y-38052500D01*
G75*
G02*
X96172500Y-37815000I237500J0D01*
G01*
G37*
G36*
G01*
X96172500Y-36090000D02*
X96647500Y-36090000D01*
G75*
G02*
X96885000Y-36327500I0J-237500D01*
G01*
X96885000Y-36927500D01*
G75*
G02*
X96647500Y-37165000I-237500J0D01*
G01*
X96172500Y-37165000D01*
G75*
G02*
X95935000Y-36927500I0J237500D01*
G01*
X95935000Y-36327500D01*
G75*
G02*
X96172500Y-36090000I237500J0D01*
G01*
G37*
%TD*%
%TO.C,C10*%
G36*
G01*
X97972500Y-37815000D02*
X98447500Y-37815000D01*
G75*
G02*
X98685000Y-38052500I0J-237500D01*
G01*
X98685000Y-38652500D01*
G75*
G02*
X98447500Y-38890000I-237500J0D01*
G01*
X97972500Y-38890000D01*
G75*
G02*
X97735000Y-38652500I0J237500D01*
G01*
X97735000Y-38052500D01*
G75*
G02*
X97972500Y-37815000I237500J0D01*
G01*
G37*
G36*
G01*
X97972500Y-36090000D02*
X98447500Y-36090000D01*
G75*
G02*
X98685000Y-36327500I0J-237500D01*
G01*
X98685000Y-36927500D01*
G75*
G02*
X98447500Y-37165000I-237500J0D01*
G01*
X97972500Y-37165000D01*
G75*
G02*
X97735000Y-36927500I0J237500D01*
G01*
X97735000Y-36327500D01*
G75*
G02*
X97972500Y-36090000I237500J0D01*
G01*
G37*
%TD*%
%TO.C,C9*%
G36*
G01*
X94472500Y-37815000D02*
X94947500Y-37815000D01*
G75*
G02*
X95185000Y-38052500I0J-237500D01*
G01*
X95185000Y-38652500D01*
G75*
G02*
X94947500Y-38890000I-237500J0D01*
G01*
X94472500Y-38890000D01*
G75*
G02*
X94235000Y-38652500I0J237500D01*
G01*
X94235000Y-38052500D01*
G75*
G02*
X94472500Y-37815000I237500J0D01*
G01*
G37*
G36*
G01*
X94472500Y-36090000D02*
X94947500Y-36090000D01*
G75*
G02*
X95185000Y-36327500I0J-237500D01*
G01*
X95185000Y-36927500D01*
G75*
G02*
X94947500Y-37165000I-237500J0D01*
G01*
X94472500Y-37165000D01*
G75*
G02*
X94235000Y-36927500I0J237500D01*
G01*
X94235000Y-36327500D01*
G75*
G02*
X94472500Y-36090000I237500J0D01*
G01*
G37*
%TD*%
%TO.C,C8*%
G36*
G01*
X102372500Y-37815000D02*
X102847500Y-37815000D01*
G75*
G02*
X103085000Y-38052500I0J-237500D01*
G01*
X103085000Y-38652500D01*
G75*
G02*
X102847500Y-38890000I-237500J0D01*
G01*
X102372500Y-38890000D01*
G75*
G02*
X102135000Y-38652500I0J237500D01*
G01*
X102135000Y-38052500D01*
G75*
G02*
X102372500Y-37815000I237500J0D01*
G01*
G37*
G36*
G01*
X102372500Y-36090000D02*
X102847500Y-36090000D01*
G75*
G02*
X103085000Y-36327500I0J-237500D01*
G01*
X103085000Y-36927500D01*
G75*
G02*
X102847500Y-37165000I-237500J0D01*
G01*
X102372500Y-37165000D01*
G75*
G02*
X102135000Y-36927500I0J237500D01*
G01*
X102135000Y-36327500D01*
G75*
G02*
X102372500Y-36090000I237500J0D01*
G01*
G37*
%TD*%
%TO.C,C7*%
G36*
G01*
X104072500Y-37815000D02*
X104547500Y-37815000D01*
G75*
G02*
X104785000Y-38052500I0J-237500D01*
G01*
X104785000Y-38652500D01*
G75*
G02*
X104547500Y-38890000I-237500J0D01*
G01*
X104072500Y-38890000D01*
G75*
G02*
X103835000Y-38652500I0J237500D01*
G01*
X103835000Y-38052500D01*
G75*
G02*
X104072500Y-37815000I237500J0D01*
G01*
G37*
G36*
G01*
X104072500Y-35952500D02*
X104547500Y-35952500D01*
G75*
G02*
X104785000Y-36190000I0J-237500D01*
G01*
X104785000Y-36790000D01*
G75*
G02*
X104547500Y-37027500I-237500J0D01*
G01*
X104072500Y-37027500D01*
G75*
G02*
X103835000Y-36790000I0J237500D01*
G01*
X103835000Y-36190000D01*
G75*
G02*
X104072500Y-35952500I237500J0D01*
G01*
G37*
%TD*%
%TO.C,C5*%
G36*
G01*
X110212500Y-37815000D02*
X110687500Y-37815000D01*
G75*
G02*
X110925000Y-38052500I0J-237500D01*
G01*
X110925000Y-38652500D01*
G75*
G02*
X110687500Y-38890000I-237500J0D01*
G01*
X110212500Y-38890000D01*
G75*
G02*
X109975000Y-38652500I0J237500D01*
G01*
X109975000Y-38052500D01*
G75*
G02*
X110212500Y-37815000I237500J0D01*
G01*
G37*
G36*
G01*
X110212500Y-36090000D02*
X110687500Y-36090000D01*
G75*
G02*
X110925000Y-36327500I0J-237500D01*
G01*
X110925000Y-36927500D01*
G75*
G02*
X110687500Y-37165000I-237500J0D01*
G01*
X110212500Y-37165000D01*
G75*
G02*
X109975000Y-36927500I0J237500D01*
G01*
X109975000Y-36327500D01*
G75*
G02*
X110212500Y-36090000I237500J0D01*
G01*
G37*
%TD*%
%TO.C,C3*%
G36*
G01*
X107872500Y-37815000D02*
X108347500Y-37815000D01*
G75*
G02*
X108585000Y-38052500I0J-237500D01*
G01*
X108585000Y-38652500D01*
G75*
G02*
X108347500Y-38890000I-237500J0D01*
G01*
X107872500Y-38890000D01*
G75*
G02*
X107635000Y-38652500I0J237500D01*
G01*
X107635000Y-38052500D01*
G75*
G02*
X107872500Y-37815000I237500J0D01*
G01*
G37*
G36*
G01*
X107872500Y-36090000D02*
X108347500Y-36090000D01*
G75*
G02*
X108585000Y-36327500I0J-237500D01*
G01*
X108585000Y-36927500D01*
G75*
G02*
X108347500Y-37165000I-237500J0D01*
G01*
X107872500Y-37165000D01*
G75*
G02*
X107635000Y-36927500I0J237500D01*
G01*
X107635000Y-36327500D01*
G75*
G02*
X107872500Y-36090000I237500J0D01*
G01*
G37*
%TD*%
%TO.C,C2*%
G36*
G01*
X109662500Y-30412500D02*
X110137500Y-30412500D01*
G75*
G02*
X110375000Y-30650000I0J-237500D01*
G01*
X110375000Y-31250000D01*
G75*
G02*
X110137500Y-31487500I-237500J0D01*
G01*
X109662500Y-31487500D01*
G75*
G02*
X109425000Y-31250000I0J237500D01*
G01*
X109425000Y-30650000D01*
G75*
G02*
X109662500Y-30412500I237500J0D01*
G01*
G37*
G36*
G01*
X109662500Y-28687500D02*
X110137500Y-28687500D01*
G75*
G02*
X110375000Y-28925000I0J-237500D01*
G01*
X110375000Y-29525000D01*
G75*
G02*
X110137500Y-29762500I-237500J0D01*
G01*
X109662500Y-29762500D01*
G75*
G02*
X109425000Y-29525000I0J237500D01*
G01*
X109425000Y-28925000D01*
G75*
G02*
X109662500Y-28687500I237500J0D01*
G01*
G37*
%TD*%
%TO.C,C1*%
G36*
G01*
X119712500Y-37815000D02*
X120187500Y-37815000D01*
G75*
G02*
X120425000Y-38052500I0J-237500D01*
G01*
X120425000Y-38652500D01*
G75*
G02*
X120187500Y-38890000I-237500J0D01*
G01*
X119712500Y-38890000D01*
G75*
G02*
X119475000Y-38652500I0J237500D01*
G01*
X119475000Y-38052500D01*
G75*
G02*
X119712500Y-37815000I237500J0D01*
G01*
G37*
G36*
G01*
X119712500Y-36090000D02*
X120187500Y-36090000D01*
G75*
G02*
X120425000Y-36327500I0J-237500D01*
G01*
X120425000Y-36927500D01*
G75*
G02*
X120187500Y-37165000I-237500J0D01*
G01*
X119712500Y-37165000D01*
G75*
G02*
X119475000Y-36927500I0J237500D01*
G01*
X119475000Y-36327500D01*
G75*
G02*
X119712500Y-36090000I237500J0D01*
G01*
G37*
%TD*%
M02*
